<?xml version="1.0" encoding="utf-8" standalone="no"?>
<!DOCTYPE svg PUBLIC "-//W3C//DTD SVG 1.1//EN"
  "http://www.w3.org/Graphics/SVG/1.1/DTD/svg11.dtd">
<svg xmlns:xlink="http://www.w3.org/1999/xlink" width="363.979831pt" height="419.805pt" viewBox="0 0 363.979831 419.805" xmlns="http://www.w3.org/2000/svg" version="1.1">
 <metadata>
  <rdf:RDF xmlns:dc="http://purl.org/dc/elements/1.1/" xmlns:cc="http://creativecommons.org/ns#" xmlns:rdf="http://www.w3.org/1999/02/22-rdf-syntax-ns#">
   <cc:Work>
    <dc:type rdf:resource="http://purl.org/dc/dcmitype/StillImage"/>
    <dc:date>2023-06-25T13:59:56.904870</dc:date>
    <dc:format>image/svg+xml</dc:format>
    <dc:creator>
     <cc:Agent>
      <dc:title>Matplotlib v3.7.1, https://matplotlib.org/</dc:title>
     </cc:Agent>
    </dc:creator>
   </cc:Work>
  </rdf:RDF>
 </metadata>
 <defs>
  <style type="text/css">*{stroke-linejoin: round; stroke-linecap: butt}</style>
 </defs>
 <g id="figure_1">
  <g id="patch_1">
   <path d="M 0 419.805 
L 363.979831 419.805 
L 363.979831 0 
L 0 0 
z
" style="fill: #ffffff"/>
  </g>
  <g id="axes_1">
   <g id="LineCollection_1">
    <path d="M 298.555214 341.016855 
L 299.58219 340.525976 
L 303.21385 338.621885 
L 303.659772 338.358275 
L 304.367502 338.642385 
L 304.932874 339.297325 
L 306.564141 341.091288 
L 307.142947 342.900483 
L 307.90105 344.1698 
L 308.366602 346.62188 
L 308.692648 347.374391 
L 309.503981 347.558521 
L 310.612852 348.189176 
L 311.976289 349.774726 
L 314.603778 352.808291 
L 316.345886 354.095099 
L 318.961158 355.906545 
L 320.429403 357.324251 
L 321.901266 358.53837 
L 322.493935 359.567155 
L 323.472507 359.89002 
L 325.281273 361.245895 
L 328.058958 363.467531 
L 330.141145 366.627181 
L 331.533688 368.484787 
L 333.243841 371.56994 
L 333.82626 373.17556 
L 334.63534 375.396156 
L 335.192975 376.812636 
L 335.33314 378.009477 
L 336.892158 380.230958 
L 337.730805 382.03136 
L 338.703455 383.442436 
L 338.627101 384.344563 
L 338.500286 385.130727 
L 338.75711 385.625816 
L 339.04969 385.981217 
L 340.39879 386.704374 
L 340.831576 388.681392 
L 340.889838 390.140064 
L 340.735962 391.434519 
L 340.44122 392.183424 
L 340.010973 393.349892 
L 339.598769 394.1775 
L 339.063743 394.120695 
L 338.338564 393.912173 
L 336.126099 392.916501 
L 334.609068 392.156084 
L 334.417742 391.494574 
L 334.412385 390.531459 
L 333.400969 389.316548 
L 332.11102 389.077953 
L 331.513502 389.131093 
" clip-path="url(#p854c5fdbb5)" style="fill: none; stroke: #000000; stroke-width: 1.5"/>
    <path d="M 264.45594 174.36873 
L 264.507578 174.452143 
L 268.56313 175.421345 
L 273.538233 176.752011 
L 274.811302 177.071769 
L 274.986076 177.202848 
L 275.37336 177.308111 
L 275.631549 177.310096 
L 283.220319 179.367665 
L 283.877707 179.707282 
L 285.720779 180.183939 
L 286.552942 180.428225 
L 287.252039 180.634775 
L 288.076256 180.928714 
L 288.685979 181.23854 
L 292.078186 183.621824 
L 299.744411 189.182817 
L 300.115003 189.405111 
L 307.602823 194.826091 
L 307.752697 194.940026 
L 308.323059 195.361783 
L 308.444922 195.566242 
L 308.662028 195.726262 
L 308.914684 195.774563 
L 309.774178 196.386148 
L 310.951997 197.148609 
L 311.510446 197.478603 
L 312.921827 198.211668 
L 314.676625 198.939193 
L 315.746603 199.363768 
L 315.92021 199.432908 
L 319.449596 200.842031 
L 320.321986 201.18259 
L 322.742437 202.12741 
L 323.026854 202.111144 
L 323.124647 202.105479 
" clip-path="url(#p854c5fdbb5)" style="fill: none; stroke: #000000; stroke-width: 1.5"/>
    <path d="M 259.267369 272.960691 
L 259.586971 272.963206 
L 259.692577 272.841395 
L 259.688952 272.696775 
L 259.612926 272.582282 
L 259.653833 270.432215 
L 259.826678 263.466442 
L 259.950529 262.470545 
L 260.12482 261.856812 
L 260.987947 259.954444 
L 261.172286 259.896298 
L 261.301004 259.659611 
L 261.330432 259.42613 
L 261.747184 258.513806 
L 262.135554 257.124207 
L 262.301315 256.139038 
L 262.372914 255.273459 
L 262.369646 254.112206 
L 262.273074 252.895007 
L 261.966137 251.342063 
L 261.83431 251.094895 
L 261.599901 250.987253 
L 259.7779 247.510023 
L 258.049487 244.572442 
L 257.694125 244.818838 
" clip-path="url(#p854c5fdbb5)" style="fill: none; stroke: #000000; stroke-width: 1.5"/>
    <path d="M 257.694125 244.818838 
L 258.692724 246.734803 
L 259.044822 247.149991 
L 260.200141 249.185418 
L 261.303618 251.436102 
L 261.70013 252.407744 
L 261.701417 252.410898 
L 261.946909 254.52185 
L 261.933044 255.37748 
L 261.861591 256.293476 
L 261.067125 256.577386 
L 260.950873 256.888368 
L 260.947787 257.243503 
L 261.071948 257.623927 
L 261.374014 258.013831 
L 261.357766 258.318813 
L 260.728678 259.602203 
L 259.689901 261.846112 
L 259.346357 263.496944 
L 259.304679 265.249833 
L 259.178258 265.493545 
L 259.166966 266.045731 
L 259.283925 266.486941 
L 259.264656 267.614145 
L 259.339877 268.243438 
L 259.303802 271.167052 
L 259.267369 272.960691 
" clip-path="url(#p854c5fdbb5)" style="fill: none; stroke: #000000; stroke-width: 1.5"/>
    <path d="M 262.161045 252.339255 
L 261.70013 252.407744 
L 253.826759 253.577685 
L 253.916108 254.239446 
L 250.754737 254.682721 
L 250.579842 254.905635 
L 250.63499 256.646971 
L 250.539295 256.701323 
L 250.459782 260.222836 
L 250.287851 272.354503 
L 250.253044 275.66598 
L 250.175058 277.581863 
L 252.290928 277.414214 
L 255.660746 276.816362 
L 259.397259 276.782622 
L 259.522181 276.670337 
L 259.338753 274.480236 
L 259.262238 274.385537 
L 259.208611 274.201439 
L 259.260291 274.081855 
L 259.267369 272.960691 
" clip-path="url(#p854c5fdbb5)" style="fill: none; stroke: #000000; stroke-width: 1.5"/>
    <path d="M 203.956889 207.26786 
L 206.494836 213.038893 
L 206.646589 213.471503 
L 206.683165 213.94194 
L 206.634276 214.988172 
L 206.227849 218.629183 
L 206.197021 218.90538 
L 206.173828 218.911995 
L 203.744009 218.717107 
L 203.465815 218.694796 
L 203.090627 218.996133 
L 202.581787 225.284112 
L 202.334205 226.776617 
L 198.742643 236.693771 
L 198.019389 246.101181 
" clip-path="url(#p854c5fdbb5)" style="fill: none; stroke: #000000; stroke-width: 1.5"/>
    <path d="M 167.932264 190.215503 
L 167.787995 190.929968 
L 167.613026 191.423318 
L 167.365546 191.810454 
L 167.087811 192.244921 
L 166.326809 193.372555 
L 164.393945 196.030726 
L 164.267266 196.157821 
L 163.909688 196.331339 
L 163.672103 196.431958 
L 163.532225 196.452826 
L 162.893305 196.591529 
L 162.504096 196.720884 
L 162.088685 196.916812 
L 161.363967 197.336973 
L 161.132899 197.474752 
L 160.181628 197.947976 
L 159.816898 198.149436 
L 159.397422 198.42161 
L 158.979118 198.724998 
L 157.16791 200.24271 
L 156.602374 200.715532 
L 156.017969 201.2236 
L 155.437359 201.745464 
L 154.848196 202.257808 
L 154.247941 202.638158 
L 153.799256 202.895182 
L 153.465693 203.117558 
L 152.400548 203.803914 
L 151.142503 204.538894 
L 150.890568 204.674998 
" clip-path="url(#p854c5fdbb5)" style="fill: none; stroke: #000000; stroke-width: 1.5"/>
    <path d="M 151.205779 204.932534 
L 152.330625 204.23124 
L 153.176162 203.797122 
L 153.955202 203.590552 
L 154.266327 203.491587 
L 154.612106 203.316303 
L 154.86607 203.078358 
L 155.389315 202.633866 
L 156.406389 201.722922 
L 156.826388 201.238947 
L 157.447035 200.497191 
L 158.08065 199.830891 
L 159.539153 198.671602 
L 159.950805 198.408074 
L 160.894656 197.914632 
L 162.363503 197.347778 
L 163.792994 196.775428 
L 164.119509 196.600253 
L 164.354452 196.442855 
L 164.640599 196.264764 
L 167.407732 192.379496 
L 167.792954 191.527778 
L 167.996492 190.870279 
L 168.129202 190.107055 
" clip-path="url(#p854c5fdbb5)" style="fill: none; stroke: #000000; stroke-width: 1.5"/>
    <path d="M 137.057091 169.01115 
L 139.585835 161.09741 
L 140.308689 159.011945 
L 142.201721 156.623518 
L 144.09387 154.469535 
L 145.573351 152.63 
L 147.929954 149.716033 
" clip-path="url(#p854c5fdbb5)" style="fill: none; stroke: #000000; stroke-width: 1.5"/>
    <path d="M 198.38172 246.129036 
L 199.10118 236.770977 
L 200.607109 232.612736 
L 202.687246 226.868995 
L 202.942775 225.32858 
L 203.440219 219.18145 
L 203.58075 219.06858 
L 206.210298 219.279485 
L 206.440351 219.213867 
L 206.549719 219.021457 
L 206.996732 215.01684 
L 207.047225 213.936313 
L 207.005216 213.396007 
L 206.833119 212.905406 
L 204.28954 207.121567 
" clip-path="url(#p854c5fdbb5)" style="fill: none; stroke: #000000; stroke-width: 1.5"/>
    <path d="M 176.06745 142.028112 
L 176.230744 141.886719 
L 176.430348 142.126746 
L 181.263218 138.223993 
L 180.944475 137.869359 
L 187.172586 132.809852 
" clip-path="url(#p854c5fdbb5)" style="fill: none; stroke: #000000; stroke-width: 1.5"/>
    <path d="M 253.227375 230.231007 
L 252.936999 230.498728 
L 253.246693 230.778417 
L 250.642885 233.48317 
L 250.824803 233.768124 
L 250.693089 234.45436 
L 251.102855 234.608724 
L 251.033083 235.117017 
L 251.041559 235.223667 
L 251.096475 235.92041 
L 251.265099 236.609051 
L 251.518537 237.20338 
L 251.695297 237.79381 
L 251.653862 238.061203 
L 253.57646 238.812557 
L 255.00684 240.013717 
L 257.228991 243.926401 
L 257.694125 244.818838 
" clip-path="url(#p854c5fdbb5)" style="fill: none; stroke: #000000; stroke-width: 1.5"/>
    <path d="M 287.072984 222.306652 
L 287.05056 224.777158 
L 287.407939 226.04223 
L 287.920052 227.060676 
L 288.635854 227.976702 
L 289.669809 228.768081 
L 290.893908 229.711187 
L 291.976814 230.646771 
L 292.845499 231.882445 
L 293.590698 233.309772 
L 294.502321 234.802604 
L 295.021959 235.679855 
L 295.363484 236.179471 
L 296.298022 236.710684 
L 298.586857 236.804309 
L 299.459245 236.907428 
L 300.72362 237.626124 
" clip-path="url(#p854c5fdbb5)" style="fill: none; stroke: #000000; stroke-width: 1.5"/>
    <path d="M 287.072984 222.306652 
L 287.06875 221.269953 
L 286.301266 219.344085 
L 285.077 216.94254 
L 284.913359 216.027615 
L 285.154487 213.971414 
" clip-path="url(#p854c5fdbb5)" style="fill: none; stroke: #000000; stroke-width: 1.5"/>
    <path d="M 302.981306 99.571558 
L 309.688226 98.107638 
" clip-path="url(#p854c5fdbb5)" style="fill: none; stroke: #000000; stroke-width: 1.5"/>
    <path d="M 309.859418 98.059937 
L 310.083215 98.026557 
L 310.245024 97.881131 
" clip-path="url(#p854c5fdbb5)" style="fill: none; stroke: #000000; stroke-width: 1.5"/>
    <path d="M 311.17522 97.686042 
L 311.412515 97.739473 
L 312.546087 97.46914 
" clip-path="url(#p854c5fdbb5)" style="fill: none; stroke: #000000; stroke-width: 1.5"/>
    <path d="M 279.902249 104.65885 
L 279.967467 104.614749 
L 280.822358 104.7062 
L 283.339949 104.184993 
" clip-path="url(#p854c5fdbb5)" style="fill: none; stroke: #000000; stroke-width: 1.5"/>
    <path d="M 284.082496 104.025211 
L 286.430995 103.53747 
L 287.154137 103.231662 
L 288.009389 102.742593 
L 288.133067 102.717467 
" clip-path="url(#p854c5fdbb5)" style="fill: none; stroke: #000000; stroke-width: 1.5"/>
    <path d="M 288.414882 102.700775 
L 288.59109 102.71017 
L 296.526729 100.976441 
L 302.687567 99.641988 
" clip-path="url(#p854c5fdbb5)" style="fill: none; stroke: #000000; stroke-width: 1.5"/>
    <path d="M 312.870567 97.398275 
L 316.018628 96.736925 
" clip-path="url(#p854c5fdbb5)" style="fill: none; stroke: #000000; stroke-width: 1.5"/>
    <path d="M 316.063308 96.682481 
L 316.183971 96.543922 
L 317.104648 96.357391 
" clip-path="url(#p854c5fdbb5)" style="fill: none; stroke: #000000; stroke-width: 1.5"/>
    <path d="M 317.504599 96.306122 
L 320.579095 95.606306 
L 321.466157 95.434123 
L 322.08599 95.360973 
L 323.20197 95.144358 
L 326.503877 94.428349 
" clip-path="url(#p854c5fdbb5)" style="fill: none; stroke: #000000; stroke-width: 1.5"/>
    <path d="M 327.490983 94.228086 
L 330.396817 93.584415 
L 332.068298 93.217593 
L 334.470435 92.779282 
L 335.015982 92.745005 
" clip-path="url(#p854c5fdbb5)" style="fill: none; stroke: #000000; stroke-width: 1.5"/>
    <path d="M 148.128071 148.558424 
L 146.368827 150.627259 
L 145.405198 151.593502 
L 144.671778 152.123641 
L 143.911352 152.36348 
L 143.348143 152.409924 
L 142.63235 152.446428 
L 142.474185 152.388836 
L 141.026986 152.469588 
L 139.108511 152.758157 
L 136.691442 153.156087 
L 135.668976 153.443911 
L 134.377408 153.898992 
L 134.135307 153.880325 
L 133.352146 154.176827 
L 133.208785 154.379888 
L 131.4606 155.18542 
L 127.257782 156.994802 
L 127.02471 157.010701 
L 126.928006 156.699692 
" clip-path="url(#p854c5fdbb5)" style="fill: none; stroke: #000000; stroke-width: 1.5"/>
    <path d="M 148.548753 148.948029 
L 148.896389 148.536583 
" clip-path="url(#p854c5fdbb5)" style="fill: none; stroke: #000000; stroke-width: 1.5"/>
    <path d="M 148.896389 148.536583 
L 149.049195 148.68108 
L 148.851751 148.924698 
L 148.860891 149.181581 
L 149.18189 149.620086 
L 149.841112 150.343957 
L 150.249701 150.669323 
L 150.914686 150.944916 
L 151.540991 151.096106 
L 152.355013 151.125896 
L 152.869439 151.080816 
L 153.486213 150.900722 
L 155.249414 150.124712 
L 155.866487 149.854012 
L 155.845156 149.744126 
L 156.92309 149.347481 
L 157.068198 148.730895 
L 157.530682 148.470079 
L 157.74611 147.205283 
L 157.849707 146.536796 
L 157.795177 146.284676 
L 157.854951 145.800762 
L 158.033498 145.612321 
L 158.208339 144.49338 
L 158.460447 144.099014 
L 158.57602 143.390006 
L 158.717097 142.953471 
L 158.798897 142.608932 
L 158.893709 142.177882 
L 159.857521 136.672575 
" clip-path="url(#p854c5fdbb5)" style="fill: none; stroke: #000000; stroke-width: 1.5"/>
    <path d="M 148.896389 148.536583 
L 149.206005 148.15725 
L 149.509517 147.649936 
L 149.570216 147.362539 
L 149.800296 146.942216 
L 150.907018 144.963385 
L 151.344664 144.594764 
L 151.583005 144.522508 
L 153.162215 143.293204 
L 153.63406 142.729303 
L 154.123532 140.98446 
L 155.493729 136.066578 
L 159.857521 136.672575 
" clip-path="url(#p854c5fdbb5)" style="fill: none; stroke: #000000; stroke-width: 1.5"/>
    <path d="M 175.813444 142.343858 
L 169.598419 144.919388 
L 167.251611 145.920156 
L 163.313962 147.536911 
L 161.678919 148.19316 
L 161.31896 148.145655 
L 159.486755 148.914592 
L 159.419765 149.047637 
L 159.679958 149.771553 
L 164.51023 147.732709 
L 166.482596 146.950858 
L 167.728068 146.536937 
L 168.097054 146.287565 
L 168.838587 145.934578 
L 175.304898 143.314832 
L 176.202273 142.800802 
" clip-path="url(#p854c5fdbb5)" style="fill: none; stroke: #000000; stroke-width: 1.5"/>
    <path d="M 159.857521 136.672575 
L 160.404337 136.619083 
L 162.40088 136.937894 
" clip-path="url(#p854c5fdbb5)" style="fill: none; stroke: #000000; stroke-width: 1.5"/>
    <path d="M 162.642661 136.703851 
L 163.351505 132.044143 
L 165.945792 130.344589 
L 168.093243 128.424579 
L 170.661313 126.128501 
L 171.506122 125.150621 
L 171.581697 125.050436 
L 172.797719 123.495933 
L 173.673492 123.530719 
L 174.071347 123.858895 
L 174.520354 123.882828 
L 175.049705 123.472655 
L 175.390617 122.928414 
" clip-path="url(#p854c5fdbb5)" style="fill: none; stroke: #000000; stroke-width: 1.5"/>
    <path d="M 172.577814 123.494491 
L 170.521617 125.995326 
L 165.828305 130.191559 
L 163.174222 131.930285 
L 162.452462 136.674916 
" clip-path="url(#p854c5fdbb5)" style="fill: none; stroke: #000000; stroke-width: 1.5"/>
    <path d="M 150.980712 134.992728 
L 151.875632 131.570961 
L 154.484556 121.496411 
" clip-path="url(#p854c5fdbb5)" style="fill: none; stroke: #000000; stroke-width: 1.5"/>
    <path d="M 150.295259 112.334795 
L 155.020529 113.660712 
L 159.584384 114.941335 
L 159.667476 115.178268 
" clip-path="url(#p854c5fdbb5)" style="fill: none; stroke: #000000; stroke-width: 1.5"/>
    <path d="M 158.491031 114.201107 
L 158.278673 114.22929 
L 156.431562 113.699807 
L 154.524814 113.130889 
L 152.73351 112.6276 
L 150.339456 111.956248 
" clip-path="url(#p854c5fdbb5)" style="fill: none; stroke: #000000; stroke-width: 1.5"/>
    <path d="M 160.366607 114.188371 
L 159.6282 114.174497 
L 158.491031 114.201107 
" clip-path="url(#p854c5fdbb5)" style="fill: none; stroke: #000000; stroke-width: 1.5"/>
    <path d="M 188.615762 132.612485 
L 189.019915 132.362161 
L 190.172669 131.98748 
L 192.121899 131.465933 
L 192.023105 131.16856 
L 195.439432 130.162505 
L 198.545872 129.263269 
L 198.908098 129.174735 
L 199.193919 129.040442 
" clip-path="url(#p854c5fdbb5)" style="fill: none; stroke: #000000; stroke-width: 1.5"/>
    <path d="M 199.212124 129.034702 
L 203.21864 125.74301 
L 204.396183 120.094765 
" clip-path="url(#p854c5fdbb5)" style="fill: none; stroke: #000000; stroke-width: 1.5"/>
    <path d="M 168.083257 115.295831 
L 175.004902 114.546159 
L 183.45833 113.616185 
L 189.025372 113.015863 
" clip-path="url(#p854c5fdbb5)" style="fill: none; stroke: #000000; stroke-width: 1.5"/>
    <path d="M 97.678678 94.628341 
L 99.703513 95.418942 
L 101.375198 96.067751 
L 101.919727 96.281325 
L 102.449649 96.478163 
L 102.991305 96.661246 
L 103.584184 96.830693 
L 104.505894 97.103715 
L 106.377061 97.654241 
L 106.496545 97.689832 
L 108.340678 98.241227 
L 108.47487 98.281289 
L 108.816929 98.37522 
L 109.906376 98.713333 
L 110.70501 98.99601 
L 110.841644 99.046448 
L 111.295578 99.258206 
L 111.394563 99.30161 
L 112.244497 99.858166 
L 113.632291 101.101052 
L 115.645154 102.929208 
L 116.419577 103.425979 
L 117.544335 103.762264 
L 119.053682 104.144359 
L 120.563596 104.579271 
L 120.675854 104.609044 
L 122.161623 104.985435 
L 122.309193 105.022188 
L 123.818758 105.407947 
L 124.692067 105.62725 
L 125.778521 105.909145 
L 127.35616 106.304055 
L 128.291693 106.539492 
L 129.077538 106.728988 
L 130.637432 107.125255 
L 132.316779 107.561411 
L 133.882531 107.960924 
L 135.517028 108.377414 
L 137.118739 108.782305 
L 138.738261 109.189493 
L 140.18521 109.567419 
L 140.625464 109.677868 
L 141.946876 110.001633 
L 143.546648 110.46413 
L 145.109257 110.894016 
L 146.667756 111.330567 
L 148.265045 111.775939 
L 149.3766 112.082724 
L 149.892147 112.229145 
" clip-path="url(#p854c5fdbb5)" style="fill: none; stroke: #000000; stroke-width: 1.5"/>
    <path d="M 149.985805 111.848228 
L 148.391787 111.405297 
L 148.275996 111.367408 
L 146.798249 110.953329 
L 146.70493 110.918902 
L 145.264634 110.512637 
L 145.150205 110.48105 
L 143.680357 110.070177 
L 143.541158 110.024828 
L 142.087606 109.619383 
L 141.975257 109.591304 
L 140.740897 109.244006 
L 140.296553 109.132529 
L 138.852519 108.755363 
L 138.727062 108.722094 
L 137.231895 108.347865 
L 137.114642 108.316128 
L 135.641918 107.945928 
L 135.538936 107.91212 
L 134.064575 107.540698 
L 133.933353 107.505384 
L 132.522118 107.151651 
L 132.364134 107.102211 
L 130.794954 106.703194 
L 130.676099 106.669671 
L 129.185242 106.29318 
L 129.04097 106.258303 
L 128.527366 106.139169 
L 128.406816 106.105554 
L 127.585238 105.898637 
L 127.464507 105.868414 
L 126.008775 105.508746 
L 125.895001 105.475496 
L 124.814837 105.210612 
L 124.362049 105.098119 
L 123.909442 104.982237 
L 122.417698 104.596859 
L 122.28305 104.572691 
L 120.780959 104.190163 
L 120.656295 104.169924 
L 119.165633 103.764218 
L 117.668373 103.354759 
L 116.612514 103.016406 
L 115.919159 102.571639 
L 113.932949 100.767689 
L 112.518757 99.501162 
L 111.609151 98.905529 
L 111.480634 98.849174 
L 111.01456 98.631753 
L 110.85764 98.573827 
L 110.047854 98.287201 
L 108.942931 97.94429 
L 108.598532 97.849711 
L 108.469186 97.811097 
L 106.624924 97.259664 
L 106.504492 97.223792 
L 104.632998 96.673171 
L 103.709616 96.399653 
L 103.124934 96.232549 
L 102.599714 96.055021 
L 102.079856 95.861917 
L 101.538368 95.649537 
L 99.866944 95.000832 
L 98.016257 94.272337 
L 96.76408 93.777383 
" clip-path="url(#p854c5fdbb5)" style="fill: none; stroke: #000000; stroke-width: 1.5"/>
    <path d="M 166.16824 115.094634 
L 168.04192 114.875911 
" clip-path="url(#p854c5fdbb5)" style="fill: none; stroke: #000000; stroke-width: 1.5"/>
    <path d="M 141.612301 72.205709 
L 142.06503 72.680473 
L 142.470575 72.999112 
L 142.982283 73.281272 
L 143.41966 73.364063 
L 143.666588 73.513163 
L 143.862129 73.571392 
L 145.06893 74.265563 
L 145.323196 74.257525 
L 147.043021 75.219766 
L 147.308252 75.471792 
L 147.815073 75.760602 
L 147.995456 76.031781 
L 148.370687 76.175373 
L 149.955734 77.041503 
L 151.867469 78.366841 
L 154.325322 80.072455 
L 154.800807 80.290378 
L 156.666571 81.636864 
L 159.352179 83.054429 
L 159.66912 83.085483 
L 160.406085 83.47169 
L 160.63483 83.696284 
L 161.973221 84.41975 
L 162.460302 84.63263 
L 162.937747 85.026238 
L 163.052695 85.469451 
L 162.978587 86.172534 
L 163.783471 90.304817 
L 164.4198 93.561528 
L 165.013434 96.663035 
L 164.972351 97.044106 
L 165.071916 97.513857 
L 164.826898 98.497651 
L 164.634568 98.493063 
L 164.481099 98.609488 
L 164.393898 98.757765 
L 164.435096 98.941208 
" clip-path="url(#p854c5fdbb5)" style="fill: none; stroke: #000000; stroke-width: 1.5"/>
    <path d="M 98.054634 191.231164 
L 98.102016 191.462806 
L 98.096751 191.589156 
L 97.765084 192.062965 
L 97.617677 192.331458 
L 97.228099 193.026382 
L 97.080691 193.363314 
L 96.754287 194.158261 
L 96.454208 195.04271 
L 96.122539 196.36938 
L 96.101481 196.674724 
L 96.106746 196.79581 
L 95.759286 198.143538 
L 95.632935 198.417294 
L 95.148596 200.491532 
L 94.953807 201.26016 
L 94.537905 201.886643 
L 94.522113 202.144606 
L 94.680049 202.47101 
L 94.322059 203.971411 
L 93.832455 206.045649 
L 93.574491 207.135413 
L 93.40076 207.930363 
L 92.979595 209.672934 
L 92.705838 210.752169 
L 92.289937 211.952492 
L 91.547633 213.647679 
L 91.263346 214.242577 
L 90.963267 214.51107 
L 90.968531 214.695329 
L 90.263079 215.748241 
L 89.862972 215.879855 
L 89.88403 216.169407 
L 89.810327 216.432635 
L 89.299664 217.106499 
L 88.778472 217.680336 
L 88.388894 217.896185 
L 88.49945 218.396317 
L 88.183576 218.517402 
L 87.799263 218.643752 
L 87.420214 218.691132 
L 86.951669 219.064916 
L 86.435742 219.62296 
L 85.91455 220.507409 
L 85.635527 220.933838 
L 84.756345 221.807755 
L 83.914014 222.602704 
L 82.160915 224.261043 
L 80.139323 225.935174 
L 79.117997 226.635361 
L 77.617596 227.403988 
L 76.138252 227.919915 
L 75.316981 228.135762 
L 74.390417 228.288435 
L 73.000573 228.425313 
L 68.910005 228.58325 
" clip-path="url(#p854c5fdbb5)" style="fill: none; stroke: #000000; stroke-width: 1.5"/>
    <path d="M 71.931826 207.015968 
L 72.186907 205.609017 
L 72.364799 204.694122 
L 72.481503 204.608584 
L 72.51285 204.40295 
L 72.50931 204.086707 
L 72.858542 202.47554 
L 73.381774 201.14405 
L 73.58991 200.522168 
L 73.591 200.382287 
L 73.88355 199.656196 
L 74.405159 198.204225 
L 75.506198 195.278492 
L 78.108879 187.991434 
L 79.246572 184.585587 
L 79.608829 182.953254 
L 80.199902 180.088164 
" clip-path="url(#p854c5fdbb5)" style="fill: none; stroke: #000000; stroke-width: 1.5"/>
    <path d="M 79.969905 179.912385 
L 79.329485 182.816006 
L 78.983828 184.519455 
L 77.812739 187.895124 
L 75.215162 195.171793 
L 74.114233 198.097232 
L 73.593832 199.545836 
L 73.281504 200.321027 
L 73.280336 200.470496 
L 73.090364 201.038106 
L 72.560265 202.387076 
L 72.055854 204.847337 
L 71.78238 206.418699 
" clip-path="url(#p854c5fdbb5)" style="fill: none; stroke: #000000; stroke-width: 1.5"/>
    <path d="M 103.842555 194.312833 
L 104.738273 194.94043 
L 106.251656 195.949353 
L 107.590266 196.938416 
L 108.956683 197.911589 
L 109.179122 198.074447 
L 110.847419 199.274033 
L 112.916904 200.759611 
L 114.791752 202.110138 
L 115.828481 202.844984 
L 116.519632 203.341501 
L 117.512666 204.02868 
L 118.656643 204.739693 
" clip-path="url(#p854c5fdbb5)" style="fill: none; stroke: #000000; stroke-width: 1.5"/>
    <path d="M 50.029316 189.45719 
L 55.520353 186.757848 
L 61.006999 182.751153 
L 73.316545 173.777328 
L 81.450557 167.750264 
L 94.613423 158.244329 
L 108.851852 148.312824 
L 112.03271 146.129802 
L 116.202942 143.285006 
" clip-path="url(#p854c5fdbb5)" style="fill: none; stroke: #000000; stroke-width: 1.5"/>
    <path d="M 110.249999 175.361135 
L 110.13681 175.453265 
L 107.154435 179.40432 
L 107.070202 179.670181 
L 106.896471 179.901822 
L 106.685889 180.038701 
L 106.304208 180.541465 
L 106.222607 180.775738 
L 105.525052 181.668082 
L 103.911463 183.771276 
L 102.063601 186.25615 
L 99.926187 189.041105 
" clip-path="url(#p854c5fdbb5)" style="fill: none; stroke: #000000; stroke-width: 1.5"/>
    <path d="M 112.200722 174.320213 
L 112.265073 174.458917 
L 112.398189 174.584482 
L 112.520471 175.27506 
L 112.19031 175.685322 
L 112.313861 175.906357 
L 113.126891 176.911431 
L 114.778933 178.827892 
L 122.066525 187.451956 
L 123.239116 188.852275 
L 123.842015 189.464961 
L 125.049024 190.463839 
" clip-path="url(#p854c5fdbb5)" style="fill: none; stroke: #000000; stroke-width: 1.5"/>
    <path d="M 111.776322 174.886653 
L 111.961022 174.651811 
L 112.091518 174.75392 
L 112.115866 174.977246 
L 112.18901 175.135203 
L 112.263413 175.184482 
L 112.340764 175.093449 
L 112.243031 174.716681 
L 112.117891 174.429077 
L 112.200722 174.320213 
" clip-path="url(#p854c5fdbb5)" style="fill: none; stroke: #000000; stroke-width: 1.5"/>
    <path d="M 112.200722 174.320213 
L 112.784456 173.399768 
L 113.805789 171.339258 
L 114.491382 169.970648 
L 114.665334 169.89496 
L 115.203906 168.557221 
L 116.905216 165.076737 
L 117.225615 164.378732 
L 117.754733 163.356541 
L 118.068961 163.135682 
L 118.436611 162.348156 
L 118.333058 162.165637 
L 118.661472 161.666744 
L 119.871514 160.353186 
L 120.352912 159.955457 
L 120.899714 159.658918 
L 121.542065 159.449872 
L 121.968217 159.286383 
L 124.280442 158.797035 
" clip-path="url(#p854c5fdbb5)" style="fill: none; stroke: #000000; stroke-width: 1.5"/>
    <path d="M 124.12912 157.24748 
L 124.180879 157.509084 
L 124.103171 157.691854 
L 121.652325 158.239878 
L 121.124987 158.442183 
L 120.272162 158.821533 
L 119.847979 159.235054 
L 119.465513 159.503537 
L 118.409278 160.405027 
L 118.199522 160.674217 
L 117.945259 160.822088 
L 117.756511 161.015935 
L 117.505089 161.58876 
L 117.405575 161.702401 
L 117.203047 161.836038 
L 116.737805 162.7543 
L 116.795279 163.076103 
L 116.414708 163.769487 
L 116.309473 163.884237 
L 116.229843 164.049913 
L 116.227875 164.219729 
L 115.831609 165.012809 
L 114.421536 167.967809 
L 113.994188 168.955154 
L 113.902801 169.054502 
L 113.118889 170.695764 
L 111.447348 173.684129 
L 111.083499 173.403899 
L 110.672783 173.458476 
L 110.528202 173.62069 
L 110.249186 173.435902 
L 110.054784 173.417045 
" clip-path="url(#p854c5fdbb5)" style="fill: none; stroke: #000000; stroke-width: 1.5"/>
    <path d="M 145.671696 151.632888 
L 143.684704 154.125557 
L 141.791295 156.280973 
L 139.833474 158.751144 
L 139.078757 160.928542 
L 136.548029 168.848485 
" clip-path="url(#p854c5fdbb5)" style="fill: none; stroke: #000000; stroke-width: 1.5"/>
    <path d="M 122.85478 139.56548 
L 123.170916 140.538741 
L 123.805565 142.496754 
L 124.232623 145.359159 
L 124.282063 146.103132 
L 124.919957 151.022324 
" clip-path="url(#p854c5fdbb5)" style="fill: none; stroke: #000000; stroke-width: 1.5"/>
    <path d="M 116.255579 143.253828 
L 118.922251 141.467366 
L 122.259997 139.257886 
L 133.04704 132.308405 
" clip-path="url(#p854c5fdbb5)" style="fill: none; stroke: #000000; stroke-width: 1.5"/>
    <path d="M 72.636813 174.060202 
L 70.230007 171.708989 
L 67.636362 169.175253 
L 67.388426 168.917353 
L 67.048441 168.409859 
L 66.932435 167.972076 
L 65.670906 161.672116 
L 65.680361 161.423294 
" clip-path="url(#p854c5fdbb5)" style="fill: none; stroke: #000000; stroke-width: 1.5"/>
    <path d="M 65.484734 161.368773 
L 65.498113 161.768539 
L 66.741403 168.065264 
L 66.895331 168.498273 
L 67.070691 168.782044 
L 67.279891 169.120571 
L 72.48408 174.162793 
" clip-path="url(#p854c5fdbb5)" style="fill: none; stroke: #000000; stroke-width: 1.5"/>
    <path d="M 96.110178 159.442318 
L 101.354138 164.66742 
L 101.770298 165.148384 
L 103.558895 166.96056 
L 106.565022 169.941818 
L 110.054108 173.417683 
" clip-path="url(#p854c5fdbb5)" style="fill: none; stroke: #000000; stroke-width: 1.5"/>
    <path d="M 42.254204 129.478628 
L 43.158986 135.032349 
L 43.803758 139.088219 
L 44.247266 141.819291 
L 44.493546 142.51211 
L 44.800836 143.548022 
L 44.756 144.81439 
L 44.787036 145.019462 
L 43.936788 148.000346 
L 43.26577 150.511882 
L 41.126392 156.876766 
L 40.482887 158.954256 
L 38.16156 166.448434 
L 37.188899 169.672863 
" clip-path="url(#p854c5fdbb5)" style="fill: none; stroke: #000000; stroke-width: 1.5"/>
    <path d="M 37.358761 169.690452 
L 38.834889 164.924898 
L 41.309493 156.935887 
L 43.450076 150.567415 
L 44.122248 148.051567 
L 44.972052 145.072235 
L 45.0511 144.059801 
L 45.011318 143.530921 
L 44.874919 143.008218 
L 44.602879 142.161097 
L 44.445922 141.70527 
L 44.035932 139.089265 
L 43.262886 134.358196 
L 42.493831 129.446087 
" clip-path="url(#p854c5fdbb5)" style="fill: none; stroke: #000000; stroke-width: 1.5"/>
    <path d="M 65.680361 161.423294 
L 68.188862 152.422398 
L 68.390272 151.965908 
L 68.643057 151.57511 
L 68.898454 151.288563 
L 71.449914 148.840728 
L 72.728368 147.42216 
L 73.553252 146.454487 
L 76.095918 143.037313 
L 76.633686 142.249105 
L 78.626898 138.905528 
L 83.025263 131.106678 
L 83.850121 130.006843 
L 84.577942 129.278822 
L 93.192144 121.546109 
L 95.794146 119.197784 
" clip-path="url(#p854c5fdbb5)" style="fill: none; stroke: #000000; stroke-width: 1.5"/>
    <path d="M 95.658084 119.047022 
L 93.056283 121.395166 
L 84.4382 129.131364 
L 83.696304 129.873457 
L 82.854866 130.995402 
L 78.451209 138.803639 
L 76.462429 142.139782 
L 75.930506 142.919419 
L 73.39434 146.327858 
L 72.575635 147.288287 
L 71.303997 148.699291 
L 68.752134 151.147514 
L 68.48104 151.451671 
L 68.210986 151.869162 
L 67.99716 152.353794 
L 65.484734 161.368773 
" clip-path="url(#p854c5fdbb5)" style="fill: none; stroke: #000000; stroke-width: 1.5"/>
    <path d="M 140.291557 140.029388 
L 146.593426 134.479652 
" clip-path="url(#p854c5fdbb5)" style="fill: none; stroke: #000000; stroke-width: 1.5"/>
    <path d="M 133.05894 132.297711 
L 139.309942 128.061312 
L 139.683314 128.636841 
L 139.869879 128.643383 
L 140.285386 128.753891 
L 140.50493 128.779184 
L 140.781226 128.759928 
L 141.037773 128.664851 
L 141.164825 128.576469 
" clip-path="url(#p854c5fdbb5)" style="fill: none; stroke: #000000; stroke-width: 1.5"/>
    <path d="M 141.612301 72.205709 
L 140.538201 72.119333 
L 140.785666 69.992889 
L 140.954184 68.035122 
L 141.065038 66.221479 
L 141.131182 64.582448 
L 141.311231 63.197292 
L 141.628717 61.890261 
L 141.653835 61.020763 
L 141.416607 60.158516 
L 141.215817 59.807973 
L 140.870156 59.385984 
L 138.530946 57.845268 
L 137.15274 56.738111 
L 136.752674 56.53978 
L 135.737064 55.536913 
L 135.6072 55.22385 
L 135.168416 54.721281 
L 134.923159 54.323053 
L 134.257243 53.567021 
L 133.523568 52.589663 
L 133.51945 52.213639 
L 132.572611 50.956724 
L 130.437723 48.128095 
L 129.561686 46.966711 
L 127.988862 44.915173 
L 127.28891 43.956887 
L 122.775118 37.904655 
L 118.246969 32.004859 
L 113.398782 25.6275 
" clip-path="url(#p854c5fdbb5)" style="fill: none; stroke: #000000; stroke-width: 1.5"/>
    <path d="M 94.611178 72.163892 
L 101.440456 77.159227 
L 102.041532 77.582703 
L 108.122563 81.866983 
L 110.059847 83.244665 
L 113.682866 85.850434 
L 115.656539 87.269948 
L 117.973821 88.956747 
L 121.482334 91.560254 
" clip-path="url(#p854c5fdbb5)" style="fill: none; stroke: #000000; stroke-width: 1.5"/>
    <path d="M 121.738356 91.204592 
L 118.158718 88.627804 
L 115.341944 86.615597 
L 115.066018 86.417602 
L 110.268487 82.975041 
L 108.306659 81.562093 
L 101.701232 76.804728 
L 101.57823 76.714756 
L 94.873288 71.810367 
" clip-path="url(#p854c5fdbb5)" style="fill: none; stroke: #000000; stroke-width: 1.5"/>
    <path d="M 87.273635 66.653687 
L 94.611178 72.163892 
" clip-path="url(#p854c5fdbb5)" style="fill: none; stroke: #000000; stroke-width: 1.5"/>
    <path d="M 94.146878 71.276649 
L 87.678704 66.386415 
" clip-path="url(#p854c5fdbb5)" style="fill: none; stroke: #000000; stroke-width: 1.5"/>
    <path d="M 26.301746 45.797102 
L 25.163873 44.988772 
L 23.089992 43.569783 
" clip-path="url(#p854c5fdbb5)" style="fill: none; stroke: #000000; stroke-width: 1.5"/>
   </g>
   <g id="LineCollection_2">
    <path d="M 259.267369 272.960691 
L 259.586971 272.963206 
L 259.692577 272.841395 
L 259.688952 272.696775 
L 259.612926 272.582282 
L 259.653833 270.432215 
L 259.826678 263.466442 
L 259.950529 262.470545 
L 260.12482 261.856812 
L 260.987947 259.954444 
L 261.172286 259.896298 
L 261.301004 259.659611 
L 261.330432 259.42613 
L 261.747184 258.513806 
L 262.135554 257.124207 
L 262.301315 256.139038 
L 262.372914 255.273459 
L 262.369646 254.112206 
L 262.273074 252.895007 
L 261.966137 251.342063 
L 261.83431 251.094895 
L 261.599901 250.987253 
L 259.7779 247.510023 
L 258.049487 244.572442 
L 257.694125 244.818838 
" clip-path="url(#p854c5fdbb5)" style="fill: none; stroke: #f87d2a; stroke-width: 2"/>
    <path d="M 257.694125 244.818838 
L 258.692724 246.734803 
L 259.044822 247.149991 
L 260.200141 249.185418 
L 261.303618 251.436102 
L 261.70013 252.407744 
L 261.701417 252.410898 
L 261.946909 254.52185 
L 261.933044 255.37748 
L 261.861591 256.293476 
L 261.067125 256.577386 
L 260.950873 256.888368 
L 260.947787 257.243503 
L 261.071948 257.623927 
L 261.374014 258.013831 
L 261.357766 258.318813 
L 260.728678 259.602203 
L 259.689901 261.846112 
L 259.346357 263.496944 
L 259.304679 265.249833 
L 259.178258 265.493545 
L 259.166966 266.045731 
L 259.283925 266.486941 
L 259.264656 267.614145 
L 259.339877 268.243438 
L 259.303802 271.167052 
L 259.267369 272.960691 
" clip-path="url(#p854c5fdbb5)" style="fill: none; stroke: #f87d2a; stroke-width: 2"/>
    <path d="M 262.161045 252.339255 
L 261.70013 252.407744 
L 253.826759 253.577685 
L 253.916108 254.239446 
L 250.754737 254.682721 
L 250.579842 254.905635 
L 250.63499 256.646971 
L 250.539295 256.701323 
L 250.459782 260.222836 
L 250.287851 272.354503 
L 250.253044 275.66598 
L 250.175058 277.581863 
L 252.290928 277.414214 
L 255.660746 276.816362 
L 259.397259 276.782622 
L 259.522181 276.670337 
L 259.338753 274.480236 
L 259.262238 274.385537 
L 259.208611 274.201439 
L 259.260291 274.081855 
L 259.267369 272.960691 
" clip-path="url(#p854c5fdbb5)" style="fill: none; stroke: #f87d2a; stroke-width: 2"/>
    <path d="M 253.227375 230.231007 
L 252.936999 230.498728 
L 253.246693 230.778417 
L 250.642885 233.48317 
L 250.824803 233.768124 
L 250.693089 234.45436 
L 251.102855 234.608724 
L 251.033083 235.117017 
L 251.041559 235.223667 
L 251.096475 235.92041 
L 251.265099 236.609051 
L 251.518537 237.20338 
L 251.695297 237.79381 
L 251.653862 238.061203 
L 253.57646 238.812557 
L 255.00684 240.013717 
L 257.228991 243.926401 
L 257.694125 244.818838 
" clip-path="url(#p854c5fdbb5)" style="fill: none; stroke: #f87d2a; stroke-width: 2"/>
   </g>
  </g>
 </g>
 <defs>
  <clipPath id="p854c5fdbb5">
   <rect x="7.2" y="7.2" width="349.579831" height="405.405"/>
  </clipPath>
 </defs>
</svg>
