<?xml version="1.0" encoding="utf-8" standalone="no"?>
<!DOCTYPE svg PUBLIC "-//W3C//DTD SVG 1.1//EN"
  "http://www.w3.org/Graphics/SVG/1.1/DTD/svg11.dtd">
<svg xmlns:xlink="http://www.w3.org/1999/xlink" width="247.659441pt" height="419.805pt" viewBox="0 0 247.659441 419.805" xmlns="http://www.w3.org/2000/svg" version="1.1">
 <metadata>
  <rdf:RDF xmlns:dc="http://purl.org/dc/elements/1.1/" xmlns:cc="http://creativecommons.org/ns#" xmlns:rdf="http://www.w3.org/1999/02/22-rdf-syntax-ns#">
   <cc:Work>
    <dc:type rdf:resource="http://purl.org/dc/dcmitype/StillImage"/>
    <dc:date>2023-06-27T18:17:12.248632</dc:date>
    <dc:format>image/svg+xml</dc:format>
    <dc:creator>
     <cc:Agent>
      <dc:title>Matplotlib v3.7.1, https://matplotlib.org/</dc:title>
     </cc:Agent>
    </dc:creator>
   </cc:Work>
  </rdf:RDF>
 </metadata>
 <defs>
  <style type="text/css">*{stroke-linejoin: round; stroke-linecap: butt}</style>
 </defs>
 <g id="figure_1">
  <g id="patch_1">
   <path d="M 0 419.805 
L 247.659441 419.805 
L 247.659441 0 
L 0 0 
z
" style="fill: #ffffff"/>
  </g>
  <g id="axes_1">
   <g id="LineCollection_1">
    <path d="M 201.002327 339.099177 
L 202.774963 339.226805 
L 205.759398 339.441135 
L 208.752093 339.658971 
L 209.163134 339.688652 
L 209.408611 339.712994 
L 209.573411 339.646549 
L 210.050273 339.686006 
L 210.098549 339.619595 
L 212.01489 339.755364 
L 214.11117 339.903191 
L 218.541249 340.217261 
L 218.701464 339.976183 
" clip-path="url(#pd5b50e6110)" style="fill: none; stroke: #000000; stroke-width: 1.5"/>
    <path d="M 201.002327 339.099177 
L 200.917721 339.182095 
L 199.869361 339.100535 
L 199.792945 339.01022 
" clip-path="url(#pd5b50e6110)" style="fill: none; stroke: #000000; stroke-width: 1.5"/>
    <path d="M 199.792945 339.01022 
L 199.896462 338.931934 
L 200.924802 339.018983 
L 201.002327 339.099177 
" clip-path="url(#pd5b50e6110)" style="fill: none; stroke: #000000; stroke-width: 1.5"/>
    <path d="M 199.792945 339.01022 
L 198.455082 338.912317 
L 194.79627 338.64983 
L 189.898529 338.292704 
L 185.792194 337.999286 
L 185.460882 337.970695 
L 181.644063 337.693687 
L 176.74453 337.334096 
L 171.716541 336.965678 
" clip-path="url(#pd5b50e6110)" style="fill: none; stroke: #000000; stroke-width: 1.5"/>
    <path d="M 171.716541 336.965678 
L 166.652053 336.595943 
L 162.249174 336.273081 
L 157.330545 335.911831 
" clip-path="url(#pd5b50e6110)" style="fill: none; stroke: #000000; stroke-width: 1.5"/>
    <path d="M 172.297644 328.95304 
L 172.099302 331.653285 
L 171.900256 334.261271 
L 171.716541 336.965678 
" clip-path="url(#pd5b50e6110)" style="fill: none; stroke: #000000; stroke-width: 1.5"/>
    <path d="M 186.30535 306.71786 
L 187.193636 306.784344 
" clip-path="url(#pd5b50e6110)" style="fill: none; stroke: #000000; stroke-width: 1.5"/>
    <path d="M 186.30535 306.71786 
L 185.052613 306.629422 
L 182.915583 306.477519 
L 179.804151 306.257439 
L 176.182997 306.002128 
L 174.587702 305.889081 
L 172.998807 305.776745 
L 169.500055 305.527249 
L 166.483043 305.31256 
L 166.108489 305.284408 
L 163.374347 305.087889 
L 161.946229 304.985528 
L 160.603685 304.889971 
L 157.569917 304.671011 
L 155.912536 304.553872 
L 154.364462 304.443571 
L 152.803596 304.331883 
L 151.223541 304.218109 
L 150.058551 304.136897 
L 149.65415 304.105511 
L 148.113036 303.990893 
L 146.52817 303.881747 
L 144.945993 303.767786 
L 143.412586 303.661724 
L 141.832822 303.545488 
L 140.29784 303.434155 
L 138.760451 303.32513 
L 137.233727 303.21728 
L 135.698752 303.105979 
L 134.191223 303.000247 
L 133.253664 302.931156 
L 132.217188 302.85895 
L 131.268969 302.788703 
L 129.462091 302.658 
L 127.883298 302.572695 
" clip-path="url(#pd5b50e6110)" style="fill: none; stroke: #000000; stroke-width: 1.5"/>
    <path d="M 208.573517 257.364788 
L 207.687002 260.041028 
L 206.756341 262.884004 
L 206.416891 263.914673 
L 205.821699 265.723979 
L 205.354561 267.132463 
L 204.886317 268.551067 
L 203.951413 271.393569 
L 203.493561 272.81587 
L 203.036265 274.233109 
L 202.092097 277.061787 
L 201.153781 279.896224 
" clip-path="url(#pd5b50e6110)" style="fill: none; stroke: #000000; stroke-width: 1.5"/>
    <path d="M 199.960141 254.532403 
L 199.079866 257.211884 
L 198.139968 260.061528 
L 197.721411 261.342171 
L 197.213511 262.887032 
L 196.752833 264.296221 
L 196.283544 265.724952 
L 195.851837 267.0272 
L 195.352005 268.557577 
L 194.417787 271.395026 
L 193.488119 274.23041 
L 192.558458 277.065792 
" clip-path="url(#pd5b50e6110)" style="fill: none; stroke: #000000; stroke-width: 1.5"/>
    <path d="M 199.960141 254.532403 
L 197.113757 253.598752 
L 193.780144 252.501742 
L 190.823177 251.533045 
L 187.601947 250.474043 
L 185.164172 249.672318 
L 182.63475 248.84012 
L 182.3846 248.759 
L 179.440381 247.791878 
L 176.548369 246.840751 
L 173.606258 245.873951 
" clip-path="url(#pd5b50e6110)" style="fill: none; stroke: #000000; stroke-width: 1.5"/>
    <path d="M 208.573517 257.364788 
L 205.735701 256.431943 
L 202.924771 255.509765 
L 199.960141 254.532403 
" clip-path="url(#pd5b50e6110)" style="fill: none; stroke: #000000; stroke-width: 1.5"/>
    <path d="M 200.073832 254.183784 
L 199.960141 254.532403 
" clip-path="url(#pd5b50e6110)" style="fill: none; stroke: #000000; stroke-width: 1.5"/>
    <path d="M 180.828497 254.34515 
L 179.898773 257.183093 
L 178.969057 260.021035 
L 178.036662 262.863803 
L 177.104552 265.704037 
L 176.174581 268.544503 
L 175.248687 271.367487 
" clip-path="url(#pd5b50e6110)" style="fill: none; stroke: #000000; stroke-width: 1.5"/>
    <path d="M 180.578353 254.26403 
L 179.648634 257.101974 
L 178.718921 259.939916 
L 177.78653 262.782684 
L 177.320061 264.206597 
L 176.854423 265.622919 
L 175.924733 268.460855 
L 174.998566 271.28637 
" clip-path="url(#pd5b50e6110)" style="fill: none; stroke: #000000; stroke-width: 1.5"/>
    <path d="M 190.937128 251.181894 
L 187.715893 250.122892 
L 185.27997 249.32393 
L 182.632005 248.450606 
L 179.556998 247.435898 
L 176.662847 246.484537 
L 173.720731 245.517737 
" clip-path="url(#pd5b50e6110)" style="fill: none; stroke: #000000; stroke-width: 1.5"/>
    <path d="M 200.073832 254.183784 
L 197.22772 253.247602 
L 193.893824 252.153122 
L 190.937128 251.181894 
" clip-path="url(#pd5b50e6110)" style="fill: none; stroke: #000000; stroke-width: 1.5"/>
    <path d="M 199.235283 225.896796 
L 199.189643 226.034757 
L 198.316936 228.704845 
L 197.892997 229.936259 
L 197.391644 231.52026 
L 196.446527 234.359111 
L 195.516626 237.197062 
L 194.596845 240.041238 
L 193.665103 242.876421 
L 192.74115 245.69965 
L 192.271434 247.112977 
L 191.798481 248.536193 
L 190.937128 251.181894 
" clip-path="url(#pd5b50e6110)" style="fill: none; stroke: #000000; stroke-width: 1.5"/>
    <path d="M 208.689633 257.013873 
L 208.573517 257.364788 
" clip-path="url(#pd5b50e6110)" style="fill: none; stroke: #000000; stroke-width: 1.5"/>
    <path d="M 208.689633 257.013873 
L 205.851535 256.083558 
L 203.040877 255.158849 
L 200.073832 254.183784 
" clip-path="url(#pd5b50e6110)" style="fill: none; stroke: #000000; stroke-width: 1.5"/>
    <path d="M 212.325359 245.961007 
L 211.420217 248.711228 
L 210.499998 251.537432 
L 209.563747 254.372122 
L 208.689633 257.013873 
" clip-path="url(#pd5b50e6110)" style="fill: none; stroke: #000000; stroke-width: 1.5"/>
    <path d="M 215.223903 246.915089 
L 217.712089 247.730356 
L 219.666663 248.371998 
L 220.866785 248.76716 
" clip-path="url(#pd5b50e6110)" style="fill: none; stroke: #000000; stroke-width: 1.5"/>
    <path d="M 208.392841 228.916296 
L 208.347192 229.054262 
L 207.482421 231.709858 
L 206.546803 234.539511 
L 205.614906 237.374689 
L 204.668361 240.205701 
L 203.736202 243.043405 
L 202.808593 245.879043 
L 201.884233 248.704792 
L 200.958218 251.54572 
L 200.073832 254.183784 
" clip-path="url(#pd5b50e6110)" style="fill: none; stroke: #000000; stroke-width: 1.5"/>
    <path d="M 173.606258 245.873951 
L 172.718641 248.54494 
L 172.260357 249.933904 
L 171.785881 251.37231 
L 170.84831 254.204272 
L 170.381344 255.633253 
L 169.920305 257.047518 
L 168.982749 259.879476 
L 168.508642 261.294871 
L 168.029995 262.712331 
L 167.104421 265.553274 
L 166.644225 266.959944 
L 166.175696 268.383627 
L 165.706892 269.80984 
L 165.244292 271.218806 
L 164.81029 272.543837 
L 164.404332 273.789995 
" clip-path="url(#pd5b50e6110)" style="fill: none; stroke: #000000; stroke-width: 1.5"/>
    <path d="M 173.606258 245.873951 
L 170.678789 244.911358 
L 167.803251 243.967288 
L 164.913046 243.019099 
L 162.00845 242.064262 
L 159.168584 241.129342 
L 156.365719 240.211308 
L 153.54874 239.284094 
L 150.698174 238.348135 
L 148.097758 237.493294 
" clip-path="url(#pd5b50e6110)" style="fill: none; stroke: #000000; stroke-width: 1.5"/>
    <path d="M 173.720731 245.517737 
L 173.606258 245.873951 
" clip-path="url(#pd5b50e6110)" style="fill: none; stroke: #000000; stroke-width: 1.5"/>
    <path d="M 212.325359 245.961007 
L 209.522632 245.043995 
L 206.701703 244.113044 
L 203.738204 243.143491 
" clip-path="url(#pd5b50e6110)" style="fill: none; stroke: #000000; stroke-width: 1.5"/>
    <path d="M 173.223692 316.425351 
L 173.051472 318.808376 
L 172.938886 320.350357 
L 172.827628 321.959061 
L 172.695544 323.639744 
L 172.53009 326.256526 
L 172.477704 326.419796 
L 172.297644 328.95304 
" clip-path="url(#pd5b50e6110)" style="fill: none; stroke: #000000; stroke-width: 1.5"/>
    <path d="M 173.223692 316.425351 
L 169.532646 316.15988 
" clip-path="url(#pd5b50e6110)" style="fill: none; stroke: #000000; stroke-width: 1.5"/>
    <path d="M 138.253097 265.735968 
L 135.709326 264.879662 
L 132.880464 263.946192 
L 131.459631 263.478775 
L 130.028683 263.005144 
L 127.212318 262.075684 
L 124.368768 261.13818 
L 122.302224 260.457015 
" clip-path="url(#pd5b50e6110)" style="fill: none; stroke: #000000; stroke-width: 1.5"/>
    <path d="M 138.391082 265.282468 
L 135.845295 264.464349 
L 133.016427 263.530878 
L 130.166773 262.590062 
L 127.348269 261.660369 
L 124.504713 260.722865 
L 122.442431 260.042165 
" clip-path="url(#pd5b50e6110)" style="fill: none; stroke: #000000; stroke-width: 1.5"/>
    <path d="M 173.720731 245.517737 
L 170.7978 244.55308 
" clip-path="url(#pd5b50e6110)" style="fill: none; stroke: #000000; stroke-width: 1.5"/>
    <path d="M 182.031827 220.239399 
L 181.985415 220.377104 
L 181.099946 223.027868 
L 180.182052 225.856888 
L 179.243307 228.698991 
L 178.317646 231.539959 
L 177.383459 234.379993 
L 176.43972 237.208738 
L 175.516016 240.031988 
L 174.582405 242.866955 
L 173.720731 245.517737 
" clip-path="url(#pd5b50e6110)" style="fill: none; stroke: #000000; stroke-width: 1.5"/>
    <path d="M 170.7978 244.55308 
L 167.922533 243.606478 
L 165.032599 242.655759 
L 162.126141 241.698158 
L 159.28627 240.763238 
L 156.488218 239.840608 
L 153.6691 238.913161 
L 150.821214 237.972374 
L 148.218937 237.114768 
" clip-path="url(#pd5b50e6110)" style="fill: none; stroke: #000000; stroke-width: 1.5"/>
    <path d="M 179.123976 219.283897 
L 179.078345 219.42187 
L 178.199039 222.075867 
L 177.27692 224.904425 
L 176.342484 227.746997 
L 175.410741 230.58474 
L 174.472883 233.41925 
L 173.527053 236.247766 
L 172.596992 239.07032 
L 171.66528 241.908054 
L 170.7978 244.55308 
" clip-path="url(#pd5b50e6110)" style="fill: none; stroke: #000000; stroke-width: 1.5"/>
    <path d="M 215.223903 246.915089 
L 212.356901 245.971327 
L 212.325359 245.961007 
" clip-path="url(#pd5b50e6110)" style="fill: none; stroke: #000000; stroke-width: 1.5"/>
    <path d="M 216.955012 231.888573 
L 216.091232 234.534038 
L 215.149839 237.375865 
L 214.206126 240.19951 
L 213.28691 243.036076 
L 212.354903 245.871239 
L 212.325359 245.961007 
" clip-path="url(#pd5b50e6110)" style="fill: none; stroke: #000000; stroke-width: 1.5"/>
    <path d="M 182.031827 220.239399 
L 182.005719 220.230808 
L 179.123976 219.283897 
" clip-path="url(#pd5b50e6110)" style="fill: none; stroke: #000000; stroke-width: 1.5"/>
    <path d="M 199.235283 225.896796 
L 199.209959 225.88846 
L 195.998974 224.830589 
L 193.552624 224.025373 
L 190.916563 223.15848 
L 187.838749 222.146036 
L 184.941815 221.19694 
L 182.031827 220.239399 
" clip-path="url(#pd5b50e6110)" style="fill: none; stroke: #000000; stroke-width: 1.5"/>
    <path d="M 188.745145 199.82686 
L 187.836791 202.58781 
L 186.721001 205.943198 
L 185.707421 209.015281 
L 184.852619 211.661725 
L 183.898747 214.543159 
L 182.970441 217.368489 
L 182.10361 220.026414 
L 182.05921 220.158153 
L 182.031827 220.239399 
" clip-path="url(#pd5b50e6110)" style="fill: none; stroke: #000000; stroke-width: 1.5"/>
    <path d="M 217.413095 206.256983 
L 217.569461 206.722221 
L 217.694719 206.958709 
L 217.722308 207.199877 
L 217.681626 207.433575 
L 217.720941 207.745165 
L 218.006061 208.572752 
L 218.031711 208.831632 
L 217.942626 209.093324 
L 218.02521 209.660602 
L 218.146977 210.303868 
L 218.337517 211.028922 
L 218.729511 211.747852 
L 219.142105 212.317953 
L 220.23425 213.149355 
L 220.644353 213.406776 
L 221.017325 213.60892 
L 221.86354 214.024185 
L 222.39303 214.315163 
L 223.218664 214.938165 
L 223.93992 215.508775 
L 224.619066 216.266837 
L 225.187942 217.243302 
L 225.583505 218.126537 
L 226.220369 219.507373 
L 227.218666 222.22098 
L 227.728081 223.838834 
L 228.095825 225.784327 
L 228.552599 227.941875 
L 228.946001 229.475337 
L 229.557067 232.648504 
L 229.856739 234.327919 
L 229.68908 235.01122 
L 229.699741 235.20957 
" clip-path="url(#pd5b50e6110)" style="fill: none; stroke: #000000; stroke-width: 1.5"/>
    <path d="M 216.975341 231.742275 
L 214.104129 230.795541 
L 211.318154 229.878665 
L 208.392841 228.916296 
" clip-path="url(#pd5b50e6110)" style="fill: none; stroke: #000000; stroke-width: 1.5"/>
    <path d="M 216.999414 231.660405 
L 214.1282 230.713671 
L 211.373391 229.807887 
L 208.419631 228.835329 
" clip-path="url(#pd5b50e6110)" style="fill: none; stroke: #000000; stroke-width: 1.5"/>
    <path d="M 199.262073 225.815818 
L 199.235283 225.896796 
" clip-path="url(#pd5b50e6110)" style="fill: none; stroke: #000000; stroke-width: 1.5"/>
    <path d="M 208.392841 228.916296 
L 208.367515 228.907964 
L 205.43393 227.939176 
L 202.168894 226.862483 
L 199.235283 225.896796 
" clip-path="url(#pd5b50e6110)" style="fill: none; stroke: #000000; stroke-width: 1.5"/>
    <path d="M 199.262073 225.815818 
L 199.234024 225.806589 
L 196.023038 224.748718 
L 193.576686 223.943502 
L 190.942758 223.076843 
L 187.862809 222.064165 
L 184.968007 221.115303 
L 182.05921 220.158153 
L 182.03191 220.14917 
L 179.150757 219.202917 
" clip-path="url(#pd5b50e6110)" style="fill: none; stroke: #000000; stroke-width: 1.5"/>
    <path d="M 208.419631 228.835329 
L 208.391584 228.826094 
L 205.457997 227.857306 
L 202.195093 226.780846 
L 199.262073 225.815818 
" clip-path="url(#pd5b50e6110)" style="fill: none; stroke: #000000; stroke-width: 1.5"/>
    <path d="M 205.958015 205.441884 
L 204.937631 208.474825 
L 203.906625 211.565497 
L 202.907237 214.623773 
L 201.972661 217.48428 
L 201.004584 220.453789 
L 200.184019 223.022037 
L 199.305735 225.683837 
L 199.262073 225.815818 
" clip-path="url(#pd5b50e6110)" style="fill: none; stroke: #000000; stroke-width: 1.5"/>
    <path d="M 208.419631 228.835329 
L 208.392841 228.916296 
" clip-path="url(#pd5b50e6110)" style="fill: none; stroke: #000000; stroke-width: 1.5"/>
    <path d="M 215.040552 208.445478 
L 214.013221 211.58009 
L 213.568405 212.942387 
L 213.069247 214.485671 
L 212.108442 217.466229 
L 211.15792 220.412059 
L 210.083234 223.723288 
L 209.318796 226.033927 
L 208.463301 228.703344 
L 208.419631 228.835329 
" clip-path="url(#pd5b50e6110)" style="fill: none; stroke: #000000; stroke-width: 1.5"/>
    <path d="M 179.123976 219.283897 
L 179.098647 219.275574 
L 176.210209 218.327543 
L 173.319626 217.379322 
L 170.44582 216.435539 
L 167.584802 215.493196 
L 164.754666 214.564512 
L 161.962089 213.647653 
L 159.129797 212.718818 
L 157.712027 212.259361 
L 157.683141 212.252299 
L 157.598487 212.231605 
L 157.454804 212.203119 
L 157.313255 212.174866 
L 157.146582 212.159234 
" clip-path="url(#pd5b50e6110)" style="fill: none; stroke: #000000; stroke-width: 1.5"/>
    <path d="M 179.150757 219.202917 
L 179.123976 219.283897 
" clip-path="url(#pd5b50e6110)" style="fill: none; stroke: #000000; stroke-width: 1.5"/>
    <path d="M 179.150757 219.202917 
L 179.122703 219.193703 
L 176.234264 218.245672 
L 173.345813 217.297684 
L 170.472006 216.353901 
L 167.610987 215.411558 
L 164.778717 214.482641 
L 161.986139 213.565781 
L 159.153845 212.636947 
L 157.487337 212.063282 
L 157.370711 212.004464 
L 157.258627 211.94358 
L 157.094392 211.846279 
L 155.431833 211.572641 
" clip-path="url(#pd5b50e6110)" style="fill: none; stroke: #000000; stroke-width: 1.5"/>
    <path d="M 185.834687 198.840536 
L 184.919066 201.628858 
L 183.821024 204.960578 
L 182.819028 208.085137 
L 181.953755 210.689467 
L 180.997239 213.575732 
L 180.070003 216.411421 
L 179.194402 219.070947 
L 179.150757 219.202917 
" clip-path="url(#pd5b50e6110)" style="fill: none; stroke: #000000; stroke-width: 1.5"/>
    <path d="M 148.097758 237.493294 
L 147.580169 237.311336 
" clip-path="url(#pd5b50e6110)" style="fill: none; stroke: #000000; stroke-width: 1.5"/>
    <path d="M 148.218937 237.114768 
L 148.097758 237.493294 
" clip-path="url(#pd5b50e6110)" style="fill: none; stroke: #000000; stroke-width: 1.5"/>
    <path d="M 147.803477 237.440689 
L 146.924391 240.135646 
L 145.995441 242.971105 
L 145.070289 245.791612 
L 144.138668 248.631894 
L 143.672723 250.053299 
L 143.203265 251.487123 
L 142.811512 252.683624 
L 142.679046 253.086519 
L 142.291085 254.26807 
L 141.82728 255.689706 
L 141.35921 257.110876 
L 140.895961 258.527451 
L 140.420868 259.973457 
L 139.491141 262.816491 
L 138.614357 265.411818 
L 138.476372 265.865318 
L 137.630758 268.471725 
L 137.16243 269.89542 
L 136.697064 271.311757 
L 135.767168 274.136838 
L 134.831632 276.974103 
L 134.228449 278.802986 
L 134.001833 279.495171 
L 132.956242 282.668637 
L 132.348727 284.517526 
L 132.055235 285.407244 
L 131.01586 288.563458 
L 130.741518 289.396376 
L 130.157781 291.165923 
L 129.437253 293.358369 
L 129.014555 294.641089 
L 128.28894 296.840658 
L 127.358558 299.670781 
L 126.803972 301.351328 
" clip-path="url(#pd5b50e6110)" style="fill: none; stroke: #000000; stroke-width: 1.5"/>
    <path d="M 148.218937 237.114768 
L 147.707193 236.93857 
" clip-path="url(#pd5b50e6110)" style="fill: none; stroke: #000000; stroke-width: 1.5"/>
    <path d="M 155.438238 215.232274 
L 153.654555 220.637369 
L 150.789806 229.322209 
L 150.256943 230.941158 
L 148.218937 237.114768 
" clip-path="url(#pd5b50e6110)" style="fill: none; stroke: #000000; stroke-width: 1.5"/>
    <path d="M 147.580169 237.311336 
L 145.021021 236.473844 
L 142.189063 235.545167 
L 139.354962 234.616299 
L 138.683863 234.397133 
L 136.514725 233.684244 
L 133.684866 232.755925 
L 131.46748 232.030151 
" clip-path="url(#pd5b50e6110)" style="fill: none; stroke: #000000; stroke-width: 1.5"/>
    <path d="M 147.707193 236.93857 
L 147.580169 237.311336 
" clip-path="url(#pd5b50e6110)" style="fill: none; stroke: #000000; stroke-width: 1.5"/>
    <path d="M 147.707193 236.93857 
L 145.14405 236.098081 
L 142.312088 235.169404 
L 139.47798 234.240535 
L 138.713102 233.990655 
L 136.637462 233.311011 
L 133.807597 232.382691 
L 131.431961 231.603811 
L 128.184371 230.527602 
L 125.348624 229.593648 
L 122.731317 228.734761 
" clip-path="url(#pd5b50e6110)" style="fill: none; stroke: #000000; stroke-width: 1.5"/>
    <path d="M 154.991472 214.855769 
L 153.127131 220.505548 
L 151.290104 226.063559 
L 149.979963 230.037804 
L 147.707193 236.93857 
" clip-path="url(#pd5b50e6110)" style="fill: none; stroke: #000000; stroke-width: 1.5"/>
    <path d="M 155.438238 215.232274 
L 155.744742 214.302985 
" clip-path="url(#pd5b50e6110)" style="fill: none; stroke: #000000; stroke-width: 1.5"/>
    <path d="M 156.185508 212.994035 
L 156.137015 213.121887 
L 155.744742 214.302985 
" clip-path="url(#pd5b50e6110)" style="fill: none; stroke: #000000; stroke-width: 1.5"/>
    <path d="M 154.991472 214.855769 
L 155.242852 214.115061 
" clip-path="url(#pd5b50e6110)" style="fill: none; stroke: #000000; stroke-width: 1.5"/>
    <path d="M 155.671692 212.856018 
L 155.547345 213.223959 
L 155.242852 214.115061 
" clip-path="url(#pd5b50e6110)" style="fill: none; stroke: #000000; stroke-width: 1.5"/>
    <path d="M 131.46748 232.030151 
L 131.092641 231.904775 
" clip-path="url(#pd5b50e6110)" style="fill: none; stroke: #000000; stroke-width: 1.5"/>
    <path d="M 131.46748 232.030151 
L 130.606585 234.698922 
L 130.170558 236.064703 
L 130.049689 236.4407 
L 129.696517 237.541555 
L 128.787835 240.371534 
L 127.87379 243.211168 
L 127.416218 244.636044 
L 126.955411 246.070808 
L 126.56988 247.270545 
L 126.43958 247.673676 
L 126.041932 248.905376 
L 125.585195 250.32266 
L 125.123642 251.744538 
L 124.211005 254.571511 
L 123.290044 257.415496 
L 122.442431 260.042165 
" clip-path="url(#pd5b50e6110)" style="fill: none; stroke: #000000; stroke-width: 1.5"/>
    <path d="M 137.484951 211.926692 
L 134.284835 212.015533 
L 131.11247 212.107443 
L 128.995002 212.1659 
L 128.182907 212.190019 
" clip-path="url(#pd5b50e6110)" style="fill: none; stroke: #000000; stroke-width: 1.5"/>
    <path d="M 137.576693 211.63969 
L 134.37843 211.731294 
L 131.206061 211.823203 
L 128.279454 211.898421 
" clip-path="url(#pd5b50e6110)" style="fill: none; stroke: #000000; stroke-width: 1.5"/>
    <path d="M 157.709066 212.266719 
L 157.683141 212.252299 
L 157.061888 211.906744 
L 155.393205 211.629877 
L 155.170618 211.513406 
L 154.978574 211.433556 
L 153.468112 210.933288 
L 150.634205 209.999285 
L 147.998255 209.130451 
L 147.689454 208.953375 
L 144.98874 208.064715 
L 142.15693 207.13107 
L 139.306183 206.192843 
" clip-path="url(#pd5b50e6110)" style="fill: none; stroke: #000000; stroke-width: 1.5"/>
    <path d="M 154.901002 211.274021 
L 155.432109 211.570111 
" clip-path="url(#pd5b50e6110)" style="fill: none; stroke: #000000; stroke-width: 1.5"/>
    <path d="M 155.432945 211.344879 
L 155.286777 211.339168 
L 155.203854 211.327558 
L 155.127884 211.311585 
L 154.913326 211.260003 
L 153.50649 210.799211 
L 150.67258 209.865208 
L 147.838659 208.931247 
L 145.004726 207.997327 
L 142.172639 207.066213 
L 139.324025 206.128218 
L 136.494323 205.19489 
L 133.687524 204.269222 
L 131.082679 203.411701 
L 131.07616 203.409513 
" clip-path="url(#pd5b50e6110)" style="fill: none; stroke: #000000; stroke-width: 1.5"/>
    <path d="M 162.77639 191.275767 
L 160.217193 190.433162 
L 157.380856 189.4989 
L 154.56529 188.572069 
L 151.718537 187.634198 
L 148.898957 186.704454 
L 146.050047 185.766433 
L 143.209383 184.831916 
L 141.721639 184.3394 
L 140.383643 183.899069 
L 138.98116 183.436354 
L 137.761735 183.037133 
" clip-path="url(#pd5b50e6110)" style="fill: none; stroke: #000000; stroke-width: 1.5"/>
    <path d="M 205.958015 205.441884 
L 203.362237 204.579322 
L 200.658668 203.715254 
L 197.711914 202.745261 
L 195.996441 202.183887 
L 194.523194 201.697655 
L 191.65871 200.764917 
L 190.424168 200.36626 
L 188.745145 199.82686 
" clip-path="url(#pd5b50e6110)" style="fill: none; stroke: #000000; stroke-width: 1.5"/>
    <path d="M 206.941977 202.445928 
L 205.958015 205.441884 
" clip-path="url(#pd5b50e6110)" style="fill: none; stroke: #000000; stroke-width: 1.5"/>
    <path d="M 215.040552 208.445478 
L 212.099983 207.478495 
L 209.061539 206.498292 
L 205.958015 205.441884 
" clip-path="url(#pd5b50e6110)" style="fill: none; stroke: #000000; stroke-width: 1.5"/>
    <path d="M 206.941977 202.445928 
L 204.439837 201.575681 
L 201.746426 200.559083 
L 198.744155 199.444746 
L 195.613579 198.318996 
L 192.81151 197.30858 
L 189.911363 196.267004 
" clip-path="url(#pd5b50e6110)" style="fill: none; stroke: #000000; stroke-width: 1.5"/>
    <path d="M 207.924055 199.388305 
L 206.941977 202.445928 
" clip-path="url(#pd5b50e6110)" style="fill: none; stroke: #000000; stroke-width: 1.5"/>
    <path d="M 188.745145 199.82686 
L 185.834687 198.840536 
" clip-path="url(#pd5b50e6110)" style="fill: none; stroke: #000000; stroke-width: 1.5"/>
    <path d="M 189.911363 196.267004 
L 189.437842 197.715785 
L 188.745145 199.82686 
" clip-path="url(#pd5b50e6110)" style="fill: none; stroke: #000000; stroke-width: 1.5"/>
    <path d="M 187.04767 195.247382 
L 187.00078 195.439425 
L 186.53415 196.766049 
L 185.834687 198.840536 
" clip-path="url(#pd5b50e6110)" style="fill: none; stroke: #000000; stroke-width: 1.5"/>
    <path d="M 189.911363 196.267004 
L 187.04767 195.247382 
" clip-path="url(#pd5b50e6110)" style="fill: none; stroke: #000000; stroke-width: 1.5"/>
    <path d="M 195.552435 179.08193 
L 194.604756 181.925665 
L 193.668029 184.768034 
L 192.739766 187.631809 
L 191.970327 189.990569 
L 190.868681 193.334715 
L 189.911363 196.267004 
" clip-path="url(#pd5b50e6110)" style="fill: none; stroke: #000000; stroke-width: 1.5"/>
    <path d="M 192.671619 178.078366 
L 191.712682 180.946477 
L 190.780817 183.784255 
L 189.838256 186.70024 
L 189.061226 189.030003 
L 187.950939 192.414174 
L 187.892588 192.533268 
L 187.04767 195.247382 
" clip-path="url(#pd5b50e6110)" style="fill: none; stroke: #000000; stroke-width: 1.5"/>
    <path d="M 192.671619 178.078366 
L 189.847293 177.091262 
L 186.900901 176.134398 
L 185.454924 175.653835 
L 184.019061 175.179509 
L 181.176644 174.239212 
L 178.365668 173.307512 
L 175.53362 172.370993 
L 172.722621 171.439376 
L 170.117602 170.578932 
" clip-path="url(#pd5b50e6110)" style="fill: none; stroke: #000000; stroke-width: 1.5"/>
    <path d="M 195.552435 179.08193 
L 192.671619 178.078366 
" clip-path="url(#pd5b50e6110)" style="fill: none; stroke: #000000; stroke-width: 1.5"/>
    <path d="M 193.634235 175.156881 
L 192.671619 178.078366 
" clip-path="url(#pd5b50e6110)" style="fill: none; stroke: #000000; stroke-width: 1.5"/>
    <path d="M 203.853885 181.932703 
L 201.270207 181.035745 
L 198.487885 180.09919 
L 195.552435 179.08193 
" clip-path="url(#pd5b50e6110)" style="fill: none; stroke: #000000; stroke-width: 1.5"/>
    <path d="M 196.535639 176.090995 
L 195.552435 179.08193 
" clip-path="url(#pd5b50e6110)" style="fill: none; stroke: #000000; stroke-width: 1.5"/>
    <path d="M 196.535639 176.090995 
L 193.634235 175.156881 
" clip-path="url(#pd5b50e6110)" style="fill: none; stroke: #000000; stroke-width: 1.5"/>
    <path d="M 201.16746 177.570192 
L 199.497803 177.042037 
L 196.535639 176.090995 
" clip-path="url(#pd5b50e6110)" style="fill: none; stroke: #000000; stroke-width: 1.5"/>
    <path d="M 197.526797 173.185428 
L 196.535639 176.090995 
" clip-path="url(#pd5b50e6110)" style="fill: none; stroke: #000000; stroke-width: 1.5"/>
    <path d="M 193.634235 175.156881 
L 190.807025 174.215553 
L 187.851856 173.239808 
L 184.977403 172.295969 
L 182.115464 171.356101 
L 179.322546 170.436616 
L 176.47311 169.500761 
L 173.663099 168.579495 
L 171.056184 167.716284 
L 170.587611 167.578087 
L 168.032373 166.735921 
L 165.191701 165.798634 
L 162.363544 164.865316 
L 159.528973 163.931342 
L 156.706918 163.001336 
L 153.87019 162.067212 
L 151.029459 161.130134 
L 148.203377 160.197257 
L 145.591821 159.336457 
L 145.118487 159.182442 
L 142.5445 158.333461 
L 139.703721 157.396551 
L 136.877316 156.466371 
L 134.040506 155.53254 
L 131.207951 154.599216 
" clip-path="url(#pd5b50e6110)" style="fill: none; stroke: #000000; stroke-width: 1.5"/>
    <path d="M 194.592747 172.193975 
L 193.634235 175.156881 
" clip-path="url(#pd5b50e6110)" style="fill: none; stroke: #000000; stroke-width: 1.5"/>
    <path d="M 139.304326 206.19008 
L 139.175373 206.145291 
L 136.473044 205.251459 
L 133.670236 204.328787 
L 131.063259 203.471033 
L 131.056893 203.468903 
" clip-path="url(#pd5b50e6110)" style="fill: none; stroke: #000000; stroke-width: 1.5"/>
    <path d="M 137.761735 183.037133 
L 137.336701 182.896064 
" clip-path="url(#pd5b50e6110)" style="fill: none; stroke: #000000; stroke-width: 1.5"/>
    <path d="M 137.761735 183.037133 
L 136.852995 185.808266 
L 135.718511 189.264014 
L 134.722668 192.299607 
L 133.863608 194.912282 
L 132.922807 197.779762 
L 132.514698 199.028264 
L 131.994408 200.612747 
L 131.131855 203.237835 
L 131.07616 203.409513 
" clip-path="url(#pd5b50e6110)" style="fill: none; stroke: #000000; stroke-width: 1.5"/>
    <path d="M 138.948306 179.420629 
L 137.761735 183.037133 
" clip-path="url(#pd5b50e6110)" style="fill: none; stroke: #000000; stroke-width: 1.5"/>
    <path d="M 137.336701 182.896064 
L 136.421567 185.666499 
L 135.856497 187.384369 
L 135.283099 189.119253 
L 134.282997 192.154381 
L 133.421809 194.766824 
L 132.954132 196.185499 
L 132.477023 197.63131 
L 132.009074 199.052514 
L 131.544089 200.46636 
L 130.67996 203.086155 
L 130.623354 203.257576 
" clip-path="url(#pd5b50e6110)" style="fill: none; stroke: #000000; stroke-width: 1.5"/>
    <path d="M 137.336701 182.896064 
L 135.707174 182.357415 
L 134.725449 182.035332 
L 131.889281 181.098917 
L 129.057093 180.165539 
L 126.235285 179.235895 
" clip-path="url(#pd5b50e6110)" style="fill: none; stroke: #000000; stroke-width: 1.5"/>
    <path d="M 138.527532 179.280025 
L 137.336701 182.896064 
" clip-path="url(#pd5b50e6110)" style="fill: none; stroke: #000000; stroke-width: 1.5"/>
    <path d="M 138.948306 179.420629 
L 138.527532 179.280025 
" clip-path="url(#pd5b50e6110)" style="fill: none; stroke: #000000; stroke-width: 1.5"/>
    <path d="M 139.883233 176.567852 
L 138.948306 179.420629 
" clip-path="url(#pd5b50e6110)" style="fill: none; stroke: #000000; stroke-width: 1.5"/>
    <path d="M 163.96769 187.659768 
L 161.41058 186.817392 
L 158.57419 185.883126 
L 155.760705 184.956523 
L 152.911767 184.018414 
L 150.093992 183.091429 
L 147.245029 182.153404 
L 144.404589 181.216352 
L 142.916541 180.726364 
L 141.578521 180.28603 
L 140.176012 179.823313 
L 138.948306 179.420629 
" clip-path="url(#pd5b50e6110)" style="fill: none; stroke: #000000; stroke-width: 1.5"/>
    <path d="M 138.527532 179.280025 
L 136.897698 178.743904 
L 135.916232 178.419289 
" clip-path="url(#pd5b50e6110)" style="fill: none; stroke: #000000; stroke-width: 1.5"/>
    <path d="M 139.466444 176.430242 
L 138.527532 179.280025 
" clip-path="url(#pd5b50e6110)" style="fill: none; stroke: #000000; stroke-width: 1.5"/>
    <path d="M 137.952042 172.240227 
L 136.852973 175.56927 
L 135.916232 178.419289 
" clip-path="url(#pd5b50e6110)" style="fill: none; stroke: #000000; stroke-width: 1.5"/>
    <path d="M 142.607458 128.806229 
L 141.752118 128.055026 
L 140.886662 127.218235 
L 140.461739 126.85702 
L 140.197201 126.648976 
L 139.808334 126.432511 
L 139.51054 126.272054 
L 139.230156 126.169821 
L 138.919823 126.08481 
L 138.474973 126.00563 
L 137.682125 125.929512 
L 136.524207 125.8546 
L 134.661218 125.710587 
L 131.753152 125.506551 
L 130.446132 125.412874 
" clip-path="url(#pd5b50e6110)" style="fill: none; stroke: #000000; stroke-width: 1.5"/>
    <path d="M 149.521131 143.672572 
L 149.249729 143.52777 
L 144.571798 138.562829 
L 143.012544 138.426204 
L 139.674927 138.162399 
L 135.827784 137.858502 
L 132.796448 137.617923 
L 129.769664 137.375322 
" clip-path="url(#pd5b50e6110)" style="fill: none; stroke: #000000; stroke-width: 1.5"/>
    <path d="M 152.82109 135.744192 
L 152.201307 135.407789 
L 151.716039 135.065567 
L 151.44924 134.898224 
L 150.75402 134.461429 
L 150.224032 133.935108 
L 149.775982 133.707047 
L 148.950975 133.371333 
L 148.488944 133.172476 
L 148.00441 132.922521 
L 147.486701 132.620303 
L 146.791553 132.083678 
L 146.439481 131.727823 
L 144.822751 130.156241 
L 144.168004 129.585625 
L 142.054386 127.619407 
L 141.188928 126.782615 
L 140.764004 126.421399 
L 140.499466 126.213356 
L 140.110598 125.99689 
L 139.812803 125.836432 
L 139.532418 125.7342 
L 139.222085 125.649188 
L 138.777233 125.570008 
L 137.984383 125.493889 
L 136.826463 125.418976 
L 134.96347 125.274961 
L 132.055396 125.070922 
L 130.748373 124.977245 
" clip-path="url(#pd5b50e6110)" style="fill: none; stroke: #000000; stroke-width: 1.5"/>
    <path d="M 95.473928 346.37963 
L 94.974503 348.050799 
L 93.96279 351.412213 
L 92.442513 356.469392 
L 91.012657 361.231752 
L 90.294913 363.619022 
L 89.512932 366.219468 
L 88.462354 369.719997 
L 87.650157 372.419553 
L 87.120534 374.189824 
L 84.937456 381.368823 
L 84.863311 381.59372 
L 83.773139 384.64698 
L 83.179268 386.353907 
L 82.655127 387.876419 
L 82.567014 388.130515 
L 81.892768 390.020692 
L 81.139864 391.920208 
L 80.240096 394.1775 
" clip-path="url(#pd5b50e6110)" style="fill: none; stroke: #000000; stroke-width: 1.5"/>
    <path d="M 95.771586 346.340414 
L 95.257635 348.045843 
L 94.295561 351.248813 
L 92.720741 356.489506 
L 91.290879 361.251865 
L 90.573132 363.639135 
L 89.840789 366.081137 
L 88.740564 369.74011 
L 87.928087 372.442196 
L 87.398738 374.209937 
L 85.228439 381.39033 
L 83.465981 386.374948 
L 82.941838 387.89746 
L 82.196526 390.043594 
L 82.152056 390.174437 
L 81.776193 391.108897 
L 81.387929 391.939593 
L 80.240096 394.1775 
" clip-path="url(#pd5b50e6110)" style="fill: none; stroke: #000000; stroke-width: 1.5"/>
    <path d="M 55.779122 241.899749 
L 55.778114 241.913517 
" clip-path="url(#pd5b50e6110)" style="fill: none; stroke: #000000; stroke-width: 1.5"/>
    <path d="M 55.779122 241.899749 
L 54.027263 241.761525 
L 52.030531 241.608413 
L 48.549279 241.334887 
L 46.049714 241.142524 
L 43.60189 240.950694 
L 41.153796 240.761422 
L 38.453156 240.572893 
L 37.093103 240.478864 
L 35.294196 240.352519 
L 33.955475 240.260827 
L 33.587548 240.231093 
L 28.065916 239.81046 
L 27.307981 239.735814 
L 26.866236 239.690393 
L 26.509107 239.620884 
L 26.150801 239.502609 
L 25.781412 239.347291 
L 25.325329 239.115999 
L 24.865255 238.881715 
L 24.587925 238.792717 
" clip-path="url(#pd5b50e6110)" style="fill: none; stroke: #000000; stroke-width: 1.5"/>
    <path d="M 122.067645 259.916794 
L 118.819697 258.848216 
L 117.405229 258.381601 
L 115.984636 257.911769 
L 115.195087 257.651573 
L 113.397015 257.06123 
L 112.924192 256.904706 
L 110.301406 256.040135 
L 107.487085 255.111199 
L 104.655966 254.177914 
L 101.812314 253.240746 
L 98.96865 252.303621 
L 97.554141 251.837152 
L 96.131097 251.369765 
L 94.725113 250.904246 
L 93.299931 250.436647 
L 91.889675 249.970685 
L 90.473018 249.504037 
L 87.671136 248.579315 
L 85.027199 247.710237 
L 84.625218 247.576859 
L 79.311372 245.859041 
L 76.16597 243.450598 
L 71.976346 243.161047 
L 69.243704 242.948179 
L 65.216062 242.63798 
L 62.012853 242.386809 
L 59.988655 242.228077 
L 58.0991 242.081447 
L 55.828818 241.90367 
L 55.779122 241.899749 
" clip-path="url(#pd5b50e6110)" style="fill: none; stroke: #000000; stroke-width: 1.5"/>
    <path d="M 57.228662 222.440493 
L 57.092864 224.225468 
L 56.881363 227.202892 
L 56.773128 228.635013 
L 56.656845 230.160981 
L 56.527763 231.76492 
L 56.414976 233.119743 
L 56.201096 236.078989 
L 56.091261 237.505815 
L 55.987136 239.058706 
L 55.779122 241.899749 
" clip-path="url(#pd5b50e6110)" style="fill: none; stroke: #000000; stroke-width: 1.5"/>
    <path d="M 121.931429 260.33464 
L 118.723182 259.278073 
L 115.887851 258.344156 
L 113.261093 257.476548 
L 112.787995 257.322554 
L 110.204909 256.469992 
L 107.361288 255.53274 
L 104.540563 254.603148 
L 101.69905 253.666213 
L 98.865781 252.73278 
L 97.449142 252.266079 
L 96.034632 251.799621 
L 94.62012 251.333173 
L 93.203472 250.866503 
L 91.776433 250.396152 
L 90.361912 249.929736 
L 87.534718 248.999697 
L 84.926493 248.139628 
L 79.104739 246.151451 
L 76.190567 243.898745 
L 71.861084 243.56581 
L 69.149775 243.355263 
L 67.788653 243.250687 
L 65.180277 243.046267 
L 63.190201 242.891217 
L 61.981063 242.79809 
L 59.9654 242.640285 
L 57.887616 242.478303 
L 55.79704 242.314949 
L 53.177754 242.112045 
L 50.948283 241.936195 
L 48.521505 241.749157 
L 46.071548 241.557066 
L 44.496632 241.434514 
L 37.163456 240.903791 
L 35.909836 240.803413 
L 33.716866 240.649622 
L 24.155726 239.93104 
" clip-path="url(#pd5b50e6110)" style="fill: none; stroke: #000000; stroke-width: 1.5"/>
    <path d="M 57.338335 222.424256 
L 57.202537 224.209231 
L 56.991034 227.186656 
L 56.882799 228.618776 
L 56.766514 230.144744 
L 56.637432 231.748684 
L 56.524644 233.103507 
L 56.310763 236.062753 
L 56.200927 237.489579 
L 56.096801 239.042471 
L 55.887778 241.897282 
" clip-path="url(#pd5b50e6110)" style="fill: none; stroke: #000000; stroke-width: 1.5"/>
    <path d="M 125.92208 305.041919 
L 125.722966 307.913457 
L 125.534214 310.650424 
L 125.368095 313.041645 
L 125.205282 315.402502 
L 125.059511 316.223845 
L 124.953458 316.977833 
L 124.873388 317.770503 
L 124.806896 318.498085 
L 124.681184 320.143513 
L 124.589251 321.459775 
L 124.498223 322.747971 
L 124.386002 324.348785 
L 124.268175 326.020679 
L 124.096278 328.444555 
L 123.922361 330.906617 
L 123.748435 333.368679 
L 123.734582 333.574561 
L 123.562857 336.016379 
L 123.386425 338.501211 
L 123.212116 340.986275 
L 123.043956 343.395198 
L 122.870615 345.83172 
L 122.781356 347.06378 
L 122.740417 347.65589 
L 122.673302 348.191371 
" clip-path="url(#pd5b50e6110)" style="fill: none; stroke: #000000; stroke-width: 1.5"/>
    <path d="M 113.126253 301.46915 
L 114.192561 301.544522 
" clip-path="url(#pd5b50e6110)" style="fill: none; stroke: #000000; stroke-width: 1.5"/>
    <path d="M 124.819179 302.297101 
L 123.38231 302.196595 
L 121.855608 302.088854 
L 120.324645 301.980658 
L 118.791551 301.87224 
L 117.262725 301.764298 
L 115.716842 301.654506 
L 114.192561 301.544522 
" clip-path="url(#pd5b50e6110)" style="fill: none; stroke: #000000; stroke-width: 1.5"/>
    <path d="M 113.126253 301.46915 
L 111.12213 301.327319 
L 109.284883 301.198588 
" clip-path="url(#pd5b50e6110)" style="fill: none; stroke: #000000; stroke-width: 1.5"/>
    <path d="M 122.302224 260.457015 
L 121.458055 263.091739 
L 121.003745 264.506719 
L 120.545371 265.939178 
L 119.636482 268.771666 
L 118.724087 271.616571 
L 117.815212 274.449055 
L 116.889483 277.29762 
L 115.980195 280.173579 
L 115.08105 282.976391 
L 114.156019 285.858309 
L 113.606775 287.570165 
L 113.252547 288.681126 
L 112.798267 290.096097 
L 112.343713 291.513597 
L 111.427861 294.370903 
L 110.516632 297.205668 
L 109.60107 300.060439 
L 109.312684 300.963508 
" clip-path="url(#pd5b50e6110)" style="fill: none; stroke: #000000; stroke-width: 1.5"/>
    <path d="M 121.931429 260.33464 
L 121.089398 262.969596 
L 120.176719 265.817035 
L 119.269968 268.649757 
L 118.357026 271.499722 
L 117.450565 274.329909 
L 116.54115 277.167452 
L 115.595036 280.123886 
L 114.77736 282.674428 
L 113.822829 285.747714 
L 113.411725 287.024016 
L 113.256025 287.521664 
L 112.919085 288.573062 
L 112.467216 289.985736 
L 112.016653 291.406232 
L 111.099702 294.273659 
L 110.191086 297.12407 
L 109.285714 299.964591 
L 108.974676 300.936879 
" clip-path="url(#pd5b50e6110)" style="fill: none; stroke: #000000; stroke-width: 1.5"/>
    <path d="M 122.302224 260.457015 
L 121.931429 260.33464 
" clip-path="url(#pd5b50e6110)" style="fill: none; stroke: #000000; stroke-width: 1.5"/>
    <path d="M 122.067645 259.916794 
L 121.931429 260.33464 
" clip-path="url(#pd5b50e6110)" style="fill: none; stroke: #000000; stroke-width: 1.5"/>
    <path d="M 122.442431 260.042165 
L 122.302224 260.457015 
" clip-path="url(#pd5b50e6110)" style="fill: none; stroke: #000000; stroke-width: 1.5"/>
    <path d="M 122.442431 260.042165 
L 122.067645 259.916794 
" clip-path="url(#pd5b50e6110)" style="fill: none; stroke: #000000; stroke-width: 1.5"/>
    <path d="M 131.092641 231.904775 
L 130.619426 233.374038 
L 130.230924 234.581138 
L 129.796002 235.936798 
L 129.321412 237.41871 
L 129.187597 237.834261 
L 128.593246 239.682049 
L 128.409775 240.256048 
L 127.439329 243.276438 
L 127.040851 244.515731 
L 126.580323 245.947965 
L 126.130059 247.345472 
L 125.668982 248.782766 
L 125.212248 250.20005 
L 124.750697 251.621928 
L 124.299888 253.024494 
L 123.838066 254.448901 
L 122.917111 257.292887 
L 122.067645 259.916794 
" clip-path="url(#pd5b50e6110)" style="fill: none; stroke: #000000; stroke-width: 1.5"/>
    <path d="M 122.605646 229.115355 
L 122.125066 230.573571 
" clip-path="url(#pd5b50e6110)" style="fill: none; stroke: #000000; stroke-width: 1.5"/>
    <path d="M 122.731317 228.734761 
L 122.605646 229.115355 
" clip-path="url(#pd5b50e6110)" style="fill: none; stroke: #000000; stroke-width: 1.5"/>
    <path d="M 131.092641 231.904775 
L 128.058689 230.908195 
L 125.224805 229.977005 
L 122.605646 229.115355 
" clip-path="url(#pd5b50e6110)" style="fill: none; stroke: #000000; stroke-width: 1.5"/>
    <path d="M 128.182907 212.190019 
L 127.801811 213.349286 
L 127.334708 214.762894 
L 126.866778 216.184092 
L 126.402087 217.5954 
L 125.466514 220.435263 
L 124.998868 221.853929 
L 124.527987 223.282483 
L 124.111854 224.54546 
L 123.595666 226.112453 
L 122.731317 228.734761 
" clip-path="url(#pd5b50e6110)" style="fill: none; stroke: #000000; stroke-width: 1.5"/>
    <path d="M 127.693627 212.203248 
L 126.892953 214.617439 
L 126.42716 216.03887 
L 125.964606 217.450412 
L 125.498816 218.871842 
L 125.031172 220.290508 
L 124.094785 223.13796 
L 123.166459 225.970926 
L 122.30425 228.593467 
L 122.180713 228.974294 
L 121.700135 230.432511 
" clip-path="url(#pd5b50e6110)" style="fill: none; stroke: #000000; stroke-width: 1.5"/>
    <path d="M 128.182907 212.190019 
L 127.693627 212.203248 
" clip-path="url(#pd5b50e6110)" style="fill: none; stroke: #000000; stroke-width: 1.5"/>
    <path d="M 128.279454 211.898421 
L 128.182907 212.190019 
" clip-path="url(#pd5b50e6110)" style="fill: none; stroke: #000000; stroke-width: 1.5"/>
    <path d="M 127.693627 212.203248 
L 124.761673 212.288166 
L 121.593907 212.378143 
L 120.221051 212.417982 
L 118.417627 212.467234 
L 115.258431 212.558228 
L 112.073379 212.649008 
L 111.477935 212.666065 
L 108.897156 212.738232 
L 105.729483 212.828429 
L 102.70028 212.915827 
L 102.540222 212.918877 
L 99.368045 213.011228 
L 96.455996 213.093541 
L 95.957937 213.108439 
L 93.92731 213.163861 
L 93.052581 213.188961 
L 89.863395 213.279587 
L 86.68916 213.371882 
L 83.513086 213.46146 
L 79.530858 213.581131 
L 78.43555 213.610446 
L 76.458866 213.666766 
L 76.255879 213.667724 
" clip-path="url(#pd5b50e6110)" style="fill: none; stroke: #000000; stroke-width: 1.5"/>
    <path d="M 127.785356 211.916245 
L 127.693627 212.203248 
" clip-path="url(#pd5b50e6110)" style="fill: none; stroke: #000000; stroke-width: 1.5"/>
    <path d="M 128.279454 211.898421 
L 127.785356 211.916245 
" clip-path="url(#pd5b50e6110)" style="fill: none; stroke: #000000; stroke-width: 1.5"/>
    <path d="M 131.056893 203.468903 
L 131.008308 203.618665 
L 130.30574 205.746556 
L 128.727142 210.544144 
L 128.279454 211.898421 
" clip-path="url(#pd5b50e6110)" style="fill: none; stroke: #000000; stroke-width: 1.5"/>
    <path d="M 127.785356 211.916245 
L 124.857664 212.001628 
L 121.690169 212.089074 
L 119.423064 212.154351 
L 118.513609 212.180695 
L 115.352275 212.271457 
L 112.169353 212.362469 
L 110.686074 212.405695 
L 108.990716 212.45399 
L 105.823039 212.544187 
L 102.636182 212.632337 
L 101.908696 212.65296 
L 99.462143 212.721926 
L 96.55009 212.804238 
" clip-path="url(#pd5b50e6110)" style="fill: none; stroke: #000000; stroke-width: 1.5"/>
    <path d="M 130.603639 203.31728 
L 130.55428 203.466752 
L 129.874576 205.543368 
L 128.288688 210.368326 
L 127.785356 211.916245 
" clip-path="url(#pd5b50e6110)" style="fill: none; stroke: #000000; stroke-width: 1.5"/>
    <path d="M 74.220304 213.709974 
L 76.255879 213.667724 
" clip-path="url(#pd5b50e6110)" style="fill: none; stroke: #000000; stroke-width: 1.5"/>
    <path d="M 74.220304 213.709974 
L 71.45956 213.494154 
L 68.707356 213.279297 
L 65.946626 213.063547 
L 63.207234 212.850152 
L 62.916863 212.821139 
L 60.354522 212.627031 
L 58.033175 212.797081 
L 55.674588 212.614935 
L 53.219745 212.424912 
L 50.760367 212.236984 
L 48.318333 212.048407 
L 45.867772 211.858932 
L 43.42575 211.670411 
L 40.990131 211.482613 
L 38.543854 211.293684 
L 36.123178 211.107563 
L 35.802128 211.082934 
" clip-path="url(#pd5b50e6110)" style="fill: none; stroke: #000000; stroke-width: 1.5"/>
    <path d="M 96.054163 212.819368 
L 93.146394 212.902188 
L 89.957204 212.992813 
L 86.785373 213.082811 
L 84.317283 213.152148 
L 83.609295 213.172388 
L 80.435369 213.262241 
L 78.371976 213.321911 
L 76.275769 213.38571 
L 74.258907 213.255907 
L 71.498157 213.040087 
L 68.743814 212.824999 
L 65.985212 212.609482 
L 63.243956 212.393326 
L 60.403211 212.179188 
L 58.065553 212.360266 
L 55.707237 212.175591 
L 53.252663 211.983039 
L 50.79383 211.790051 
L 48.352341 211.596416 
L 45.90205 211.404411 
L 43.458164 211.213129 
L 41.025224 211.020503 
L 38.579216 210.829045 
L 36.156951 210.637632 
L 35.846016 210.619222 
L 33.336789 210.433756 
L 30.943574 210.253235 
L 28.864739 210.099194 
L 26.039021 209.887128 
L 21.170331 209.489183 
L 18.721411 209.305308 
L 17.84256 209.230408 
" clip-path="url(#pd5b50e6110)" style="fill: none; stroke: #000000; stroke-width: 1.5"/>
    <path d="M 96.55009 212.804238 
L 96.054163 212.819368 
" clip-path="url(#pd5b50e6110)" style="fill: none; stroke: #000000; stroke-width: 1.5"/>
    <path d="M 113.988811 158.530766 
L 113.016624 161.471656 
L 112.256338 163.775062 
L 111.158532 167.096553 
L 110.21955 169.930957 
L 109.785514 171.240647 
L 109.440696 172.2861 
L 109.026352 173.533925 
L 108.102738 176.326472 
L 107.533649 178.043899 
L 106.961328 179.771213 
L 105.963042 182.793728 
L 105.095555 185.408037 
L 104.146366 188.277155 
L 103.207166 191.114074 
L 102.335363 193.748388 
L 102.209463 194.131519 
L 101.771671 195.45615 
L 101.341659 196.768826 
L 100.409983 199.596314 
L 99.938744 201.029951 
L 99.47508 202.433689 
L 98.54046 205.268532 
L 97.612042 208.086126 
L 96.676885 210.926025 
L 96.054163 212.819368 
" clip-path="url(#pd5b50e6110)" style="fill: none; stroke: #000000; stroke-width: 1.5"/>
    <path d="M 114.355804 158.650089 
L 113.383336 161.59351 
L 112.623046 163.896915 
L 112.240494 165.050915 
L 111.525233 167.218405 
L 110.59423 170.058799 
L 109.414101 173.66063 
L 108.496332 176.458933 
L 107.93364 178.177056 
L 107.365582 179.904835 
L 106.375823 182.928279 
L 105.516314 185.548577 
L 104.575652 188.418623 
L 103.644153 191.264062 
L 102.781153 193.896774 
L 102.655528 194.277375 
L 101.785584 196.914448 
L 100.853902 199.741937 
L 100.38562 201.168215 
L 99.921126 202.579544 
L 98.986223 205.416916 
L 98.057799 208.234509 
L 97.588221 209.652962 
L 97.120779 211.071646 
L 96.55009 212.804238 
" clip-path="url(#pd5b50e6110)" style="fill: none; stroke: #000000; stroke-width: 1.5"/>
    <path d="M 35.806394 211.083397 
L 33.299305 210.898161 
L 30.903687 210.719938 
L 28.824857 210.565897 
L 25.999146 210.353829 
L 21.130466 209.955882 
L 18.683684 209.772238 
L 17.802702 209.697107 
" clip-path="url(#pd5b50e6110)" style="fill: none; stroke: #000000; stroke-width: 1.5"/>
    <path d="M 131.056893 203.468903 
L 130.609231 203.31912 
L 130.603639 203.31728 
" clip-path="url(#pd5b50e6110)" style="fill: none; stroke: #000000; stroke-width: 1.5"/>
    <path d="M 131.07616 203.409513 
L 131.056893 203.468903 
" clip-path="url(#pd5b50e6110)" style="fill: none; stroke: #000000; stroke-width: 1.5"/>
    <path d="M 131.07616 203.409513 
L 130.630784 203.260021 
L 130.623354 203.257576 
" clip-path="url(#pd5b50e6110)" style="fill: none; stroke: #000000; stroke-width: 1.5"/>
    <path d="M 130.603639 203.31728 
L 128.014766 202.465333 
L 125.184742 201.534701 
L 122.346724 200.598121 
L 119.522801 199.6708 
L 116.67836 198.733606 
L 113.840307 197.797152 
L 111.010224 196.866729 
L 108.161756 195.926666 
L 105.327658 194.993332 
L 102.710457 194.12974 
" clip-path="url(#pd5b50e6110)" style="fill: none; stroke: #000000; stroke-width: 1.5"/>
    <path d="M 130.623354 203.257576 
L 130.603639 203.31728 
" clip-path="url(#pd5b50e6110)" style="fill: none; stroke: #000000; stroke-width: 1.5"/>
    <path d="M 130.623354 203.257576 
L 128.036319 202.406234 
L 125.20657 201.473072 
L 122.368275 200.539021 
L 119.544627 199.60917 
L 116.700185 198.671976 
L 113.862131 197.735521 
L 111.032047 196.805098 
L 108.185712 195.865268 
L 105.349204 194.934231 
L 102.732002 194.07064 
" clip-path="url(#pd5b50e6110)" style="fill: none; stroke: #000000; stroke-width: 1.5"/>
    <path d="M 129.45691 169.442819 
L 128.360394 172.769577 
L 127.423777 175.619606 
L 126.235285 179.235895 
" clip-path="url(#pd5b50e6110)" style="fill: none; stroke: #000000; stroke-width: 1.5"/>
    <path d="M 116.061172 153.774074 
L 115.385541 155.815312 
L 114.506827 158.492432 
L 114.355804 158.650089 
" clip-path="url(#pd5b50e6110)" style="fill: none; stroke: #000000; stroke-width: 1.5"/>
    <path d="M 115.549494 153.516105 
L 114.854109 155.639682 
L 113.975402 158.316803 
L 113.988811 158.530766 
" clip-path="url(#pd5b50e6110)" style="fill: none; stroke: #000000; stroke-width: 1.5"/>
    <path d="M 130.097074 154.470519 
L 128.140517 154.375167 
L 125.065383 154.142641 
L 122.014005 153.910184 
L 119.274993 153.7041 
L 118.913759 153.76974 
L 117.470366 153.661228 
" clip-path="url(#pd5b50e6110)" style="fill: none; stroke: #000000; stroke-width: 1.5"/>
    <path d="M 126.968846 148.30246 
L 130.181884 154.405508 
" clip-path="url(#pd5b50e6110)" style="fill: none; stroke: #000000; stroke-width: 1.5"/>
    <path d="M 130.45329 125.426455 
L 125.887684 125.095782 
" clip-path="url(#pd5b50e6110)" style="fill: none; stroke: #000000; stroke-width: 1.5"/>
    <path d="M 101.579996 123.531239 
L 101.155029 123.170116 
L 100.234375 122.204644 
L 99.186536 120.879723 
L 98.104472 119.571571 
L 97.79714 119.22069 
L 96.530104 117.429047 
L 95.740173 116.214124 
L 95.303491 115.344833 
L 95.105109 114.885475 
L 94.804489 114.35356 
L 93.527141 111.523965 
L 93.246807 110.904654 
L 92.545951 109.525351 
L 92.11578 108.695185 
L 91.201389 107.07507 
L 91.109024 106.752692 
L 90.563743 104.199844 
L 90.238755 102.600275 
L 90.193953 101.840162 
L 90.311676 101.41261 
" clip-path="url(#pd5b50e6110)" style="fill: none; stroke: #000000; stroke-width: 1.5"/>
    <path d="M 102.169147 122.898937 
L 102.089357 122.818573 
L 101.983684 122.737954 
L 101.67238 122.542805 
L 101.159707 122.154223 
L 100.318226 121.374017 
L 100.088832 121.100732 
L 98.969581 119.578594 
L 97.664462 117.52166 
L 96.381612 115.418521 
L 94.987068 112.117895 
L 94.0774 109.958072 
L 93.714935 108.822921 
L 93.481041 108.034568 
L 93.222557 107.17442 
L 92.847888 106.012346 
L 92.712579 104.356577 
L 92.5823 103.707498 
L 92.209735 101.552317 
" clip-path="url(#pd5b50e6110)" style="fill: none; stroke: #000000; stroke-width: 1.5"/>
    <path d="M 65.568778 46.316318 
L 65.615465 45.427938 
L 65.561486 44.910081 
L 65.541321 43.702128 
L 65.516668 42.296569 
L 65.495196 41.976799 
L 65.113155 40.739839 
L 64.550077 39.339887 
L 62.610421 34.859462 
L 62.559394 34.692649 
L 61.003638 29.519183 
L 60.846677 29.154007 
L 60.661438 28.691047 
L 60.595975 28.438191 
L 59.77104 25.6275 
" clip-path="url(#pd5b50e6110)" style="fill: none; stroke: #000000; stroke-width: 1.5"/>
    <path d="M 117.511388 153.681056 
L 115.532699 153.511716 
" clip-path="url(#pd5b50e6110)" style="fill: none; stroke: #000000; stroke-width: 1.5"/>
    <path d="M 110.670697 49.229074 
L 109.814791 44.125759 
L 109.665939 43.24936 
L 109.077912 39.596081 
L 108.92196 38.427052 
L 108.613113 35.961321 
L 108.454123 33.289139 
L 108.409842 32.086164 
L 108.249428 30.798889 
L 107.947688 29.201842 
L 107.708478 27.923931 
L 107.664015 27.458269 
L 107.65472 27.185881 
L 107.656605 27.009434 
L 107.696607 26.680957 
" clip-path="url(#pd5b50e6110)" style="fill: none; stroke: #000000; stroke-width: 1.5"/>
   </g>
   <g id="LineCollection_2">
    <path d="M 208.573517 257.364788 
L 207.687002 260.041028 
L 206.756341 262.884004 
L 206.416891 263.914673 
L 205.821699 265.723979 
L 205.354561 267.132463 
L 204.886317 268.551067 
L 203.951413 271.393569 
L 203.493561 272.81587 
L 203.036265 274.233109 
L 202.092097 277.061787 
L 201.153781 279.896224 
" clip-path="url(#pd5b50e6110)" style="fill: none; stroke: #f87d2a; stroke-width: 2"/>
    <path d="M 199.960141 254.532403 
L 199.079866 257.211884 
L 198.139968 260.061528 
L 197.721411 261.342171 
L 197.213511 262.887032 
L 196.752833 264.296221 
L 196.283544 265.724952 
L 195.851837 267.0272 
L 195.352005 268.557577 
L 194.417787 271.395026 
L 193.488119 274.23041 
L 192.558458 277.065792 
" clip-path="url(#pd5b50e6110)" style="fill: none; stroke: #f87d2a; stroke-width: 2"/>
    <path d="M 199.960141 254.532403 
L 197.113757 253.598752 
L 193.780144 252.501742 
L 190.823177 251.533045 
L 187.601947 250.474043 
L 185.164172 249.672318 
L 182.63475 248.84012 
L 182.3846 248.759 
L 179.440381 247.791878 
L 176.548369 246.840751 
L 173.606258 245.873951 
" clip-path="url(#pd5b50e6110)" style="fill: none; stroke: #f87d2a; stroke-width: 2"/>
    <path d="M 208.573517 257.364788 
L 205.735701 256.431943 
L 202.924771 255.509765 
L 199.960141 254.532403 
" clip-path="url(#pd5b50e6110)" style="fill: none; stroke: #f87d2a; stroke-width: 2"/>
    <path d="M 200.073832 254.183784 
L 199.960141 254.532403 
" clip-path="url(#pd5b50e6110)" style="fill: none; stroke: #f87d2a; stroke-width: 2"/>
    <path d="M 190.937128 251.181894 
L 187.715893 250.122892 
L 185.27997 249.32393 
L 182.632005 248.450606 
L 179.556998 247.435898 
L 176.662847 246.484537 
L 173.720731 245.517737 
" clip-path="url(#pd5b50e6110)" style="fill: none; stroke: #f87d2a; stroke-width: 2"/>
    <path d="M 200.073832 254.183784 
L 197.22772 253.247602 
L 193.893824 252.153122 
L 190.937128 251.181894 
" clip-path="url(#pd5b50e6110)" style="fill: none; stroke: #f87d2a; stroke-width: 2"/>
    <path d="M 199.235283 225.896796 
L 199.189643 226.034757 
L 198.316936 228.704845 
L 197.892997 229.936259 
L 197.391644 231.52026 
L 196.446527 234.359111 
L 195.516626 237.197062 
L 194.596845 240.041238 
L 193.665103 242.876421 
L 192.74115 245.69965 
L 192.271434 247.112977 
L 191.798481 248.536193 
L 190.937128 251.181894 
" clip-path="url(#pd5b50e6110)" style="fill: none; stroke: #f87d2a; stroke-width: 2"/>
    <path d="M 208.689633 257.013873 
L 208.573517 257.364788 
" clip-path="url(#pd5b50e6110)" style="fill: none; stroke: #f87d2a; stroke-width: 2"/>
    <path d="M 208.689633 257.013873 
L 205.851535 256.083558 
L 203.040877 255.158849 
L 200.073832 254.183784 
" clip-path="url(#pd5b50e6110)" style="fill: none; stroke: #f87d2a; stroke-width: 2"/>
    <path d="M 212.325359 245.961007 
L 211.420217 248.711228 
L 210.499998 251.537432 
L 209.563747 254.372122 
L 208.689633 257.013873 
" clip-path="url(#pd5b50e6110)" style="fill: none; stroke: #f87d2a; stroke-width: 2"/>
    <path d="M 215.223903 246.915089 
L 217.712089 247.730356 
L 219.666663 248.371998 
L 220.866785 248.76716 
" clip-path="url(#pd5b50e6110)" style="fill: none; stroke: #f87d2a; stroke-width: 2"/>
    <path d="M 208.392841 228.916296 
L 208.347192 229.054262 
L 207.482421 231.709858 
L 206.546803 234.539511 
L 205.614906 237.374689 
L 204.668361 240.205701 
L 203.736202 243.043405 
L 202.808593 245.879043 
L 201.884233 248.704792 
L 200.958218 251.54572 
L 200.073832 254.183784 
" clip-path="url(#pd5b50e6110)" style="fill: none; stroke: #f87d2a; stroke-width: 2"/>
    <path d="M 173.606258 245.873951 
L 172.718641 248.54494 
L 172.260357 249.933904 
L 171.785881 251.37231 
L 170.84831 254.204272 
L 170.381344 255.633253 
L 169.920305 257.047518 
L 168.982749 259.879476 
L 168.508642 261.294871 
L 168.029995 262.712331 
L 167.104421 265.553274 
L 166.644225 266.959944 
L 166.175696 268.383627 
L 165.706892 269.80984 
L 165.244292 271.218806 
L 164.81029 272.543837 
L 164.404332 273.789995 
" clip-path="url(#pd5b50e6110)" style="fill: none; stroke: #f87d2a; stroke-width: 2"/>
    <path d="M 173.606258 245.873951 
L 170.678789 244.911358 
L 167.803251 243.967288 
L 164.913046 243.019099 
L 162.00845 242.064262 
L 159.168584 241.129342 
L 156.365719 240.211308 
L 153.54874 239.284094 
L 150.698174 238.348135 
L 148.097758 237.493294 
" clip-path="url(#pd5b50e6110)" style="fill: none; stroke: #f87d2a; stroke-width: 2"/>
    <path d="M 173.720731 245.517737 
L 173.606258 245.873951 
" clip-path="url(#pd5b50e6110)" style="fill: none; stroke: #f87d2a; stroke-width: 2"/>
    <path d="M 212.325359 245.961007 
L 209.522632 245.043995 
L 206.701703 244.113044 
L 203.738204 243.143491 
" clip-path="url(#pd5b50e6110)" style="fill: none; stroke: #f87d2a; stroke-width: 2"/>
    <path d="M 138.253097 265.735968 
L 135.709326 264.879662 
L 132.880464 263.946192 
L 131.459631 263.478775 
L 130.028683 263.005144 
L 127.212318 262.075684 
L 124.368768 261.13818 
L 122.302224 260.457015 
" clip-path="url(#pd5b50e6110)" style="fill: none; stroke: #f87d2a; stroke-width: 2"/>
    <path d="M 138.391082 265.282468 
L 135.845295 264.464349 
L 133.016427 263.530878 
L 130.166773 262.590062 
L 127.348269 261.660369 
L 124.504713 260.722865 
L 122.442431 260.042165 
" clip-path="url(#pd5b50e6110)" style="fill: none; stroke: #f87d2a; stroke-width: 2"/>
    <path d="M 173.720731 245.517737 
L 170.7978 244.55308 
" clip-path="url(#pd5b50e6110)" style="fill: none; stroke: #f87d2a; stroke-width: 2"/>
    <path d="M 182.031827 220.239399 
L 181.985415 220.377104 
L 181.099946 223.027868 
L 180.182052 225.856888 
L 179.243307 228.698991 
L 178.317646 231.539959 
L 177.383459 234.379993 
L 176.43972 237.208738 
L 175.516016 240.031988 
L 174.582405 242.866955 
L 173.720731 245.517737 
" clip-path="url(#pd5b50e6110)" style="fill: none; stroke: #f87d2a; stroke-width: 2"/>
    <path d="M 170.7978 244.55308 
L 167.922533 243.606478 
L 165.032599 242.655759 
L 162.126141 241.698158 
L 159.28627 240.763238 
L 156.488218 239.840608 
L 153.6691 238.913161 
L 150.821214 237.972374 
L 148.218937 237.114768 
" clip-path="url(#pd5b50e6110)" style="fill: none; stroke: #f87d2a; stroke-width: 2"/>
    <path d="M 179.123976 219.283897 
L 179.078345 219.42187 
L 178.199039 222.075867 
L 177.27692 224.904425 
L 176.342484 227.746997 
L 175.410741 230.58474 
L 174.472883 233.41925 
L 173.527053 236.247766 
L 172.596992 239.07032 
L 171.66528 241.908054 
L 170.7978 244.55308 
" clip-path="url(#pd5b50e6110)" style="fill: none; stroke: #f87d2a; stroke-width: 2"/>
    <path d="M 215.223903 246.915089 
L 212.356901 245.971327 
L 212.325359 245.961007 
" clip-path="url(#pd5b50e6110)" style="fill: none; stroke: #f87d2a; stroke-width: 2"/>
    <path d="M 216.955012 231.888573 
L 216.091232 234.534038 
L 215.149839 237.375865 
L 214.206126 240.19951 
L 213.28691 243.036076 
L 212.354903 245.871239 
L 212.325359 245.961007 
" clip-path="url(#pd5b50e6110)" style="fill: none; stroke: #f87d2a; stroke-width: 2"/>
    <path d="M 182.031827 220.239399 
L 182.005719 220.230808 
L 179.123976 219.283897 
" clip-path="url(#pd5b50e6110)" style="fill: none; stroke: #f87d2a; stroke-width: 2"/>
    <path d="M 199.235283 225.896796 
L 199.209959 225.88846 
L 195.998974 224.830589 
L 193.552624 224.025373 
L 190.916563 223.15848 
L 187.838749 222.146036 
L 184.941815 221.19694 
L 182.031827 220.239399 
" clip-path="url(#pd5b50e6110)" style="fill: none; stroke: #f87d2a; stroke-width: 2"/>
    <path d="M 188.745145 199.82686 
L 187.836791 202.58781 
L 186.721001 205.943198 
L 185.707421 209.015281 
L 184.852619 211.661725 
L 183.898747 214.543159 
L 182.970441 217.368489 
L 182.10361 220.026414 
L 182.05921 220.158153 
L 182.031827 220.239399 
" clip-path="url(#pd5b50e6110)" style="fill: none; stroke: #f87d2a; stroke-width: 2"/>
    <path d="M 216.975341 231.742275 
L 214.104129 230.795541 
L 211.318154 229.878665 
L 208.392841 228.916296 
" clip-path="url(#pd5b50e6110)" style="fill: none; stroke: #f87d2a; stroke-width: 2"/>
    <path d="M 216.999414 231.660405 
L 214.1282 230.713671 
L 211.373391 229.807887 
L 208.419631 228.835329 
" clip-path="url(#pd5b50e6110)" style="fill: none; stroke: #f87d2a; stroke-width: 2"/>
    <path d="M 199.262073 225.815818 
L 199.235283 225.896796 
" clip-path="url(#pd5b50e6110)" style="fill: none; stroke: #f87d2a; stroke-width: 2"/>
    <path d="M 208.392841 228.916296 
L 208.367515 228.907964 
L 205.43393 227.939176 
L 202.168894 226.862483 
L 199.235283 225.896796 
" clip-path="url(#pd5b50e6110)" style="fill: none; stroke: #f87d2a; stroke-width: 2"/>
    <path d="M 199.262073 225.815818 
L 199.234024 225.806589 
L 196.023038 224.748718 
L 193.576686 223.943502 
L 190.942758 223.076843 
L 187.862809 222.064165 
L 184.968007 221.115303 
L 182.05921 220.158153 
L 182.03191 220.14917 
L 179.150757 219.202917 
" clip-path="url(#pd5b50e6110)" style="fill: none; stroke: #f87d2a; stroke-width: 2"/>
    <path d="M 208.419631 228.835329 
L 208.391584 228.826094 
L 205.457997 227.857306 
L 202.195093 226.780846 
L 199.262073 225.815818 
" clip-path="url(#pd5b50e6110)" style="fill: none; stroke: #f87d2a; stroke-width: 2"/>
    <path d="M 205.958015 205.441884 
L 204.937631 208.474825 
L 203.906625 211.565497 
L 202.907237 214.623773 
L 201.972661 217.48428 
L 201.004584 220.453789 
L 200.184019 223.022037 
L 199.305735 225.683837 
L 199.262073 225.815818 
" clip-path="url(#pd5b50e6110)" style="fill: none; stroke: #f87d2a; stroke-width: 2"/>
    <path d="M 208.419631 228.835329 
L 208.392841 228.916296 
" clip-path="url(#pd5b50e6110)" style="fill: none; stroke: #f87d2a; stroke-width: 2"/>
    <path d="M 215.040552 208.445478 
L 214.013221 211.58009 
L 213.568405 212.942387 
L 213.069247 214.485671 
L 212.108442 217.466229 
L 211.15792 220.412059 
L 210.083234 223.723288 
L 209.318796 226.033927 
L 208.463301 228.703344 
L 208.419631 228.835329 
" clip-path="url(#pd5b50e6110)" style="fill: none; stroke: #f87d2a; stroke-width: 2"/>
    <path d="M 179.123976 219.283897 
L 179.098647 219.275574 
L 176.210209 218.327543 
L 173.319626 217.379322 
L 170.44582 216.435539 
L 167.584802 215.493196 
L 164.754666 214.564512 
L 161.962089 213.647653 
L 159.129797 212.718818 
L 157.712027 212.259361 
L 157.683141 212.252299 
L 157.598487 212.231605 
L 157.454804 212.203119 
L 157.313255 212.174866 
L 157.146582 212.159234 
" clip-path="url(#pd5b50e6110)" style="fill: none; stroke: #f87d2a; stroke-width: 2"/>
    <path d="M 179.150757 219.202917 
L 179.123976 219.283897 
" clip-path="url(#pd5b50e6110)" style="fill: none; stroke: #f87d2a; stroke-width: 2"/>
    <path d="M 179.150757 219.202917 
L 179.122703 219.193703 
L 176.234264 218.245672 
L 173.345813 217.297684 
L 170.472006 216.353901 
L 167.610987 215.411558 
L 164.778717 214.482641 
L 161.986139 213.565781 
L 159.153845 212.636947 
L 157.487337 212.063282 
L 157.370711 212.004464 
L 157.258627 211.94358 
L 157.094392 211.846279 
L 155.431833 211.572641 
" clip-path="url(#pd5b50e6110)" style="fill: none; stroke: #f87d2a; stroke-width: 2"/>
    <path d="M 185.834687 198.840536 
L 184.919066 201.628858 
L 183.821024 204.960578 
L 182.819028 208.085137 
L 181.953755 210.689467 
L 180.997239 213.575732 
L 180.070003 216.411421 
L 179.194402 219.070947 
L 179.150757 219.202917 
" clip-path="url(#pd5b50e6110)" style="fill: none; stroke: #f87d2a; stroke-width: 2"/>
    <path d="M 148.097758 237.493294 
L 147.580169 237.311336 
" clip-path="url(#pd5b50e6110)" style="fill: none; stroke: #f87d2a; stroke-width: 2"/>
    <path d="M 148.218937 237.114768 
L 148.097758 237.493294 
" clip-path="url(#pd5b50e6110)" style="fill: none; stroke: #f87d2a; stroke-width: 2"/>
    <path d="M 148.218937 237.114768 
L 147.707193 236.93857 
" clip-path="url(#pd5b50e6110)" style="fill: none; stroke: #f87d2a; stroke-width: 2"/>
    <path d="M 155.438238 215.232274 
L 153.654555 220.637369 
L 150.789806 229.322209 
L 150.256943 230.941158 
L 148.218937 237.114768 
" clip-path="url(#pd5b50e6110)" style="fill: none; stroke: #f87d2a; stroke-width: 2"/>
    <path d="M 147.580169 237.311336 
L 145.021021 236.473844 
L 142.189063 235.545167 
L 139.354962 234.616299 
L 138.683863 234.397133 
L 136.514725 233.684244 
L 133.684866 232.755925 
L 131.46748 232.030151 
" clip-path="url(#pd5b50e6110)" style="fill: none; stroke: #f87d2a; stroke-width: 2"/>
    <path d="M 147.707193 236.93857 
L 147.580169 237.311336 
" clip-path="url(#pd5b50e6110)" style="fill: none; stroke: #f87d2a; stroke-width: 2"/>
    <path d="M 147.707193 236.93857 
L 145.14405 236.098081 
L 142.312088 235.169404 
L 139.47798 234.240535 
L 138.713102 233.990655 
L 136.637462 233.311011 
L 133.807597 232.382691 
L 131.431961 231.603811 
L 128.184371 230.527602 
L 125.348624 229.593648 
L 122.731317 228.734761 
" clip-path="url(#pd5b50e6110)" style="fill: none; stroke: #f87d2a; stroke-width: 2"/>
    <path d="M 154.991472 214.855769 
L 153.127131 220.505548 
L 151.290104 226.063559 
L 149.979963 230.037804 
L 147.707193 236.93857 
" clip-path="url(#pd5b50e6110)" style="fill: none; stroke: #f87d2a; stroke-width: 2"/>
    <path d="M 155.438238 215.232274 
L 155.744742 214.302985 
" clip-path="url(#pd5b50e6110)" style="fill: none; stroke: #f87d2a; stroke-width: 2"/>
    <path d="M 156.185508 212.994035 
L 156.137015 213.121887 
L 155.744742 214.302985 
" clip-path="url(#pd5b50e6110)" style="fill: none; stroke: #f87d2a; stroke-width: 2"/>
    <path d="M 154.991472 214.855769 
L 155.242852 214.115061 
" clip-path="url(#pd5b50e6110)" style="fill: none; stroke: #f87d2a; stroke-width: 2"/>
    <path d="M 155.671692 212.856018 
L 155.547345 213.223959 
L 155.242852 214.115061 
" clip-path="url(#pd5b50e6110)" style="fill: none; stroke: #f87d2a; stroke-width: 2"/>
    <path d="M 131.46748 232.030151 
L 131.092641 231.904775 
" clip-path="url(#pd5b50e6110)" style="fill: none; stroke: #f87d2a; stroke-width: 2"/>
    <path d="M 131.46748 232.030151 
L 130.606585 234.698922 
L 130.170558 236.064703 
L 130.049689 236.4407 
L 129.696517 237.541555 
L 128.787835 240.371534 
L 127.87379 243.211168 
L 127.416218 244.636044 
L 126.955411 246.070808 
L 126.56988 247.270545 
L 126.43958 247.673676 
L 126.041932 248.905376 
L 125.585195 250.32266 
L 125.123642 251.744538 
L 124.211005 254.571511 
L 123.290044 257.415496 
L 122.442431 260.042165 
" clip-path="url(#pd5b50e6110)" style="fill: none; stroke: #f87d2a; stroke-width: 2"/>
    <path d="M 137.484951 211.926692 
L 134.284835 212.015533 
L 131.11247 212.107443 
L 128.995002 212.1659 
L 128.182907 212.190019 
" clip-path="url(#pd5b50e6110)" style="fill: none; stroke: #f87d2a; stroke-width: 2"/>
    <path d="M 137.576693 211.63969 
L 134.37843 211.731294 
L 131.206061 211.823203 
L 128.279454 211.898421 
" clip-path="url(#pd5b50e6110)" style="fill: none; stroke: #f87d2a; stroke-width: 2"/>
    <path d="M 155.432945 211.344879 
L 155.286777 211.339168 
L 155.203854 211.327558 
L 155.127884 211.311585 
L 154.913326 211.260003 
L 153.50649 210.799211 
L 150.67258 209.865208 
L 147.838659 208.931247 
L 145.004726 207.997327 
L 142.172639 207.066213 
L 139.324025 206.128218 
L 136.494323 205.19489 
L 133.687524 204.269222 
L 131.082679 203.411701 
L 131.07616 203.409513 
" clip-path="url(#pd5b50e6110)" style="fill: none; stroke: #f87d2a; stroke-width: 2"/>
    <path d="M 162.77639 191.275767 
L 160.217193 190.433162 
L 157.380856 189.4989 
L 154.56529 188.572069 
L 151.718537 187.634198 
L 148.898957 186.704454 
L 146.050047 185.766433 
L 143.209383 184.831916 
L 141.721639 184.3394 
L 140.383643 183.899069 
L 138.98116 183.436354 
L 137.761735 183.037133 
" clip-path="url(#pd5b50e6110)" style="fill: none; stroke: #f87d2a; stroke-width: 2"/>
    <path d="M 205.958015 205.441884 
L 203.362237 204.579322 
L 200.658668 203.715254 
L 197.711914 202.745261 
L 195.996441 202.183887 
L 194.523194 201.697655 
L 191.65871 200.764917 
L 190.424168 200.36626 
L 188.745145 199.82686 
" clip-path="url(#pd5b50e6110)" style="fill: none; stroke: #f87d2a; stroke-width: 2"/>
    <path d="M 206.941977 202.445928 
L 205.958015 205.441884 
" clip-path="url(#pd5b50e6110)" style="fill: none; stroke: #f87d2a; stroke-width: 2"/>
    <path d="M 215.040552 208.445478 
L 212.099983 207.478495 
L 209.061539 206.498292 
L 205.958015 205.441884 
" clip-path="url(#pd5b50e6110)" style="fill: none; stroke: #f87d2a; stroke-width: 2"/>
    <path d="M 206.941977 202.445928 
L 204.439837 201.575681 
L 201.746426 200.559083 
L 198.744155 199.444746 
L 195.613579 198.318996 
L 192.81151 197.30858 
L 189.911363 196.267004 
" clip-path="url(#pd5b50e6110)" style="fill: none; stroke: #f87d2a; stroke-width: 2"/>
    <path d="M 207.924055 199.388305 
L 206.941977 202.445928 
" clip-path="url(#pd5b50e6110)" style="fill: none; stroke: #f87d2a; stroke-width: 2"/>
    <path d="M 188.745145 199.82686 
L 185.834687 198.840536 
" clip-path="url(#pd5b50e6110)" style="fill: none; stroke: #f87d2a; stroke-width: 2"/>
    <path d="M 189.911363 196.267004 
L 189.437842 197.715785 
L 188.745145 199.82686 
" clip-path="url(#pd5b50e6110)" style="fill: none; stroke: #f87d2a; stroke-width: 2"/>
    <path d="M 187.04767 195.247382 
L 187.00078 195.439425 
L 186.53415 196.766049 
L 185.834687 198.840536 
" clip-path="url(#pd5b50e6110)" style="fill: none; stroke: #f87d2a; stroke-width: 2"/>
    <path d="M 189.911363 196.267004 
L 187.04767 195.247382 
" clip-path="url(#pd5b50e6110)" style="fill: none; stroke: #f87d2a; stroke-width: 2"/>
    <path d="M 195.552435 179.08193 
L 194.604756 181.925665 
L 193.668029 184.768034 
L 192.739766 187.631809 
L 191.970327 189.990569 
L 190.868681 193.334715 
L 189.911363 196.267004 
" clip-path="url(#pd5b50e6110)" style="fill: none; stroke: #f87d2a; stroke-width: 2"/>
    <path d="M 192.671619 178.078366 
L 191.712682 180.946477 
L 190.780817 183.784255 
L 189.838256 186.70024 
L 189.061226 189.030003 
L 187.950939 192.414174 
L 187.892588 192.533268 
L 187.04767 195.247382 
" clip-path="url(#pd5b50e6110)" style="fill: none; stroke: #f87d2a; stroke-width: 2"/>
    <path d="M 192.671619 178.078366 
L 189.847293 177.091262 
L 186.900901 176.134398 
L 185.454924 175.653835 
L 184.019061 175.179509 
L 181.176644 174.239212 
L 178.365668 173.307512 
L 175.53362 172.370993 
L 172.722621 171.439376 
L 170.117602 170.578932 
" clip-path="url(#pd5b50e6110)" style="fill: none; stroke: #f87d2a; stroke-width: 2"/>
    <path d="M 195.552435 179.08193 
L 192.671619 178.078366 
" clip-path="url(#pd5b50e6110)" style="fill: none; stroke: #f87d2a; stroke-width: 2"/>
    <path d="M 193.634235 175.156881 
L 192.671619 178.078366 
" clip-path="url(#pd5b50e6110)" style="fill: none; stroke: #f87d2a; stroke-width: 2"/>
    <path d="M 203.853885 181.932703 
L 201.270207 181.035745 
L 198.487885 180.09919 
L 195.552435 179.08193 
" clip-path="url(#pd5b50e6110)" style="fill: none; stroke: #f87d2a; stroke-width: 2"/>
    <path d="M 196.535639 176.090995 
L 195.552435 179.08193 
" clip-path="url(#pd5b50e6110)" style="fill: none; stroke: #f87d2a; stroke-width: 2"/>
    <path d="M 196.535639 176.090995 
L 193.634235 175.156881 
" clip-path="url(#pd5b50e6110)" style="fill: none; stroke: #f87d2a; stroke-width: 2"/>
    <path d="M 201.16746 177.570192 
L 199.497803 177.042037 
L 196.535639 176.090995 
" clip-path="url(#pd5b50e6110)" style="fill: none; stroke: #f87d2a; stroke-width: 2"/>
    <path d="M 197.526797 173.185428 
L 196.535639 176.090995 
" clip-path="url(#pd5b50e6110)" style="fill: none; stroke: #f87d2a; stroke-width: 2"/>
    <path d="M 193.634235 175.156881 
L 190.807025 174.215553 
L 187.851856 173.239808 
L 184.977403 172.295969 
L 182.115464 171.356101 
L 179.322546 170.436616 
L 176.47311 169.500761 
L 173.663099 168.579495 
L 171.056184 167.716284 
L 170.587611 167.578087 
L 168.032373 166.735921 
L 165.191701 165.798634 
L 162.363544 164.865316 
L 159.528973 163.931342 
L 156.706918 163.001336 
L 153.87019 162.067212 
L 151.029459 161.130134 
L 148.203377 160.197257 
L 145.591821 159.336457 
L 145.118487 159.182442 
L 142.5445 158.333461 
L 139.703721 157.396551 
L 136.877316 156.466371 
L 134.040506 155.53254 
L 131.207951 154.599216 
" clip-path="url(#pd5b50e6110)" style="fill: none; stroke: #f87d2a; stroke-width: 2"/>
    <path d="M 194.592747 172.193975 
L 193.634235 175.156881 
" clip-path="url(#pd5b50e6110)" style="fill: none; stroke: #f87d2a; stroke-width: 2"/>
    <path d="M 139.304326 206.19008 
L 139.175373 206.145291 
L 136.473044 205.251459 
L 133.670236 204.328787 
L 131.063259 203.471033 
L 131.056893 203.468903 
" clip-path="url(#pd5b50e6110)" style="fill: none; stroke: #f87d2a; stroke-width: 2"/>
    <path d="M 137.761735 183.037133 
L 137.336701 182.896064 
" clip-path="url(#pd5b50e6110)" style="fill: none; stroke: #f87d2a; stroke-width: 2"/>
    <path d="M 137.761735 183.037133 
L 136.852995 185.808266 
L 135.718511 189.264014 
L 134.722668 192.299607 
L 133.863608 194.912282 
L 132.922807 197.779762 
L 132.514698 199.028264 
L 131.994408 200.612747 
L 131.131855 203.237835 
L 131.07616 203.409513 
" clip-path="url(#pd5b50e6110)" style="fill: none; stroke: #f87d2a; stroke-width: 2"/>
    <path d="M 138.948306 179.420629 
L 137.761735 183.037133 
" clip-path="url(#pd5b50e6110)" style="fill: none; stroke: #f87d2a; stroke-width: 2"/>
    <path d="M 137.336701 182.896064 
L 136.421567 185.666499 
L 135.856497 187.384369 
L 135.283099 189.119253 
L 134.282997 192.154381 
L 133.421809 194.766824 
L 132.954132 196.185499 
L 132.477023 197.63131 
L 132.009074 199.052514 
L 131.544089 200.46636 
L 130.67996 203.086155 
L 130.623354 203.257576 
" clip-path="url(#pd5b50e6110)" style="fill: none; stroke: #f87d2a; stroke-width: 2"/>
    <path d="M 137.336701 182.896064 
L 135.707174 182.357415 
L 134.725449 182.035332 
L 131.889281 181.098917 
L 129.057093 180.165539 
L 126.235285 179.235895 
" clip-path="url(#pd5b50e6110)" style="fill: none; stroke: #f87d2a; stroke-width: 2"/>
    <path d="M 138.527532 179.280025 
L 137.336701 182.896064 
" clip-path="url(#pd5b50e6110)" style="fill: none; stroke: #f87d2a; stroke-width: 2"/>
    <path d="M 138.948306 179.420629 
L 138.527532 179.280025 
" clip-path="url(#pd5b50e6110)" style="fill: none; stroke: #f87d2a; stroke-width: 2"/>
    <path d="M 139.883233 176.567852 
L 138.948306 179.420629 
" clip-path="url(#pd5b50e6110)" style="fill: none; stroke: #f87d2a; stroke-width: 2"/>
    <path d="M 163.96769 187.659768 
L 161.41058 186.817392 
L 158.57419 185.883126 
L 155.760705 184.956523 
L 152.911767 184.018414 
L 150.093992 183.091429 
L 147.245029 182.153404 
L 144.404589 181.216352 
L 142.916541 180.726364 
L 141.578521 180.28603 
L 140.176012 179.823313 
L 138.948306 179.420629 
" clip-path="url(#pd5b50e6110)" style="fill: none; stroke: #f87d2a; stroke-width: 2"/>
    <path d="M 138.527532 179.280025 
L 136.897698 178.743904 
L 135.916232 178.419289 
" clip-path="url(#pd5b50e6110)" style="fill: none; stroke: #f87d2a; stroke-width: 2"/>
    <path d="M 139.466444 176.430242 
L 138.527532 179.280025 
" clip-path="url(#pd5b50e6110)" style="fill: none; stroke: #f87d2a; stroke-width: 2"/>
    <path d="M 137.952042 172.240227 
L 136.852973 175.56927 
L 135.916232 178.419289 
" clip-path="url(#pd5b50e6110)" style="fill: none; stroke: #f87d2a; stroke-width: 2"/>
    <path d="M 55.779122 241.899749 
L 55.778114 241.913517 
" clip-path="url(#pd5b50e6110)" style="fill: none; stroke: #f87d2a; stroke-width: 2"/>
    <path d="M 55.779122 241.899749 
L 54.027263 241.761525 
L 52.030531 241.608413 
L 48.549279 241.334887 
L 46.049714 241.142524 
L 43.60189 240.950694 
L 41.153796 240.761422 
L 38.453156 240.572893 
L 37.093103 240.478864 
L 35.294196 240.352519 
L 33.955475 240.260827 
L 33.587548 240.231093 
L 28.065916 239.81046 
L 27.307981 239.735814 
L 26.866236 239.690393 
L 26.509107 239.620884 
L 26.150801 239.502609 
L 25.781412 239.347291 
L 25.325329 239.115999 
L 24.865255 238.881715 
L 24.587925 238.792717 
" clip-path="url(#pd5b50e6110)" style="fill: none; stroke: #f87d2a; stroke-width: 2"/>
    <path d="M 122.067645 259.916794 
L 118.819697 258.848216 
L 117.405229 258.381601 
L 115.984636 257.911769 
L 115.195087 257.651573 
L 113.397015 257.06123 
L 112.924192 256.904706 
L 110.301406 256.040135 
L 107.487085 255.111199 
L 104.655966 254.177914 
L 101.812314 253.240746 
L 98.96865 252.303621 
L 97.554141 251.837152 
L 96.131097 251.369765 
L 94.725113 250.904246 
L 93.299931 250.436647 
L 91.889675 249.970685 
L 90.473018 249.504037 
L 87.671136 248.579315 
L 85.027199 247.710237 
L 84.625218 247.576859 
L 79.311372 245.859041 
L 76.16597 243.450598 
L 71.976346 243.161047 
L 69.243704 242.948179 
L 65.216062 242.63798 
L 62.012853 242.386809 
L 59.988655 242.228077 
L 58.0991 242.081447 
L 55.828818 241.90367 
L 55.779122 241.899749 
" clip-path="url(#pd5b50e6110)" style="fill: none; stroke: #f87d2a; stroke-width: 2"/>
    <path d="M 57.228662 222.440493 
L 57.092864 224.225468 
L 56.881363 227.202892 
L 56.773128 228.635013 
L 56.656845 230.160981 
L 56.527763 231.76492 
L 56.414976 233.119743 
L 56.201096 236.078989 
L 56.091261 237.505815 
L 55.987136 239.058706 
L 55.779122 241.899749 
" clip-path="url(#pd5b50e6110)" style="fill: none; stroke: #f87d2a; stroke-width: 2"/>
    <path d="M 121.931429 260.33464 
L 118.723182 259.278073 
L 115.887851 258.344156 
L 113.261093 257.476548 
L 112.787995 257.322554 
L 110.204909 256.469992 
L 107.361288 255.53274 
L 104.540563 254.603148 
L 101.69905 253.666213 
L 98.865781 252.73278 
L 97.449142 252.266079 
L 96.034632 251.799621 
L 94.62012 251.333173 
L 93.203472 250.866503 
L 91.776433 250.396152 
L 90.361912 249.929736 
L 87.534718 248.999697 
L 84.926493 248.139628 
L 79.104739 246.151451 
L 76.190567 243.898745 
L 71.861084 243.56581 
L 69.149775 243.355263 
L 67.788653 243.250687 
L 65.180277 243.046267 
L 63.190201 242.891217 
L 61.981063 242.79809 
L 59.9654 242.640285 
L 57.887616 242.478303 
L 55.79704 242.314949 
L 53.177754 242.112045 
L 50.948283 241.936195 
L 48.521505 241.749157 
L 46.071548 241.557066 
L 44.496632 241.434514 
L 37.163456 240.903791 
L 35.909836 240.803413 
L 33.716866 240.649622 
L 24.155726 239.93104 
" clip-path="url(#pd5b50e6110)" style="fill: none; stroke: #f87d2a; stroke-width: 2"/>
    <path d="M 122.302224 260.457015 
L 121.458055 263.091739 
L 121.003745 264.506719 
L 120.545371 265.939178 
L 119.636482 268.771666 
L 118.724087 271.616571 
L 117.815212 274.449055 
L 116.889483 277.29762 
L 115.980195 280.173579 
L 115.08105 282.976391 
L 114.156019 285.858309 
L 113.606775 287.570165 
L 113.252547 288.681126 
L 112.798267 290.096097 
L 112.343713 291.513597 
L 111.427861 294.370903 
L 110.516632 297.205668 
L 109.60107 300.060439 
L 109.312684 300.963508 
" clip-path="url(#pd5b50e6110)" style="fill: none; stroke: #f87d2a; stroke-width: 2"/>
    <path d="M 121.931429 260.33464 
L 121.089398 262.969596 
L 120.176719 265.817035 
L 119.269968 268.649757 
L 118.357026 271.499722 
L 117.450565 274.329909 
L 116.54115 277.167452 
L 115.595036 280.123886 
L 114.77736 282.674428 
L 113.822829 285.747714 
L 113.411725 287.024016 
L 113.256025 287.521664 
L 112.919085 288.573062 
L 112.467216 289.985736 
L 112.016653 291.406232 
L 111.099702 294.273659 
L 110.191086 297.12407 
L 109.285714 299.964591 
L 108.974676 300.936879 
" clip-path="url(#pd5b50e6110)" style="fill: none; stroke: #f87d2a; stroke-width: 2"/>
    <path d="M 122.302224 260.457015 
L 121.931429 260.33464 
" clip-path="url(#pd5b50e6110)" style="fill: none; stroke: #f87d2a; stroke-width: 2"/>
    <path d="M 122.067645 259.916794 
L 121.931429 260.33464 
" clip-path="url(#pd5b50e6110)" style="fill: none; stroke: #f87d2a; stroke-width: 2"/>
    <path d="M 122.442431 260.042165 
L 122.302224 260.457015 
" clip-path="url(#pd5b50e6110)" style="fill: none; stroke: #f87d2a; stroke-width: 2"/>
    <path d="M 122.442431 260.042165 
L 122.067645 259.916794 
" clip-path="url(#pd5b50e6110)" style="fill: none; stroke: #f87d2a; stroke-width: 2"/>
    <path d="M 131.092641 231.904775 
L 130.619426 233.374038 
L 130.230924 234.581138 
L 129.796002 235.936798 
L 129.321412 237.41871 
L 129.187597 237.834261 
L 128.593246 239.682049 
L 128.409775 240.256048 
L 127.439329 243.276438 
L 127.040851 244.515731 
L 126.580323 245.947965 
L 126.130059 247.345472 
L 125.668982 248.782766 
L 125.212248 250.20005 
L 124.750697 251.621928 
L 124.299888 253.024494 
L 123.838066 254.448901 
L 122.917111 257.292887 
L 122.067645 259.916794 
" clip-path="url(#pd5b50e6110)" style="fill: none; stroke: #f87d2a; stroke-width: 2"/>
    <path d="M 122.605646 229.115355 
L 122.125066 230.573571 
" clip-path="url(#pd5b50e6110)" style="fill: none; stroke: #f87d2a; stroke-width: 2"/>
    <path d="M 122.731317 228.734761 
L 122.605646 229.115355 
" clip-path="url(#pd5b50e6110)" style="fill: none; stroke: #f87d2a; stroke-width: 2"/>
    <path d="M 131.092641 231.904775 
L 128.058689 230.908195 
L 125.224805 229.977005 
L 122.605646 229.115355 
" clip-path="url(#pd5b50e6110)" style="fill: none; stroke: #f87d2a; stroke-width: 2"/>
    <path d="M 128.182907 212.190019 
L 127.801811 213.349286 
L 127.334708 214.762894 
L 126.866778 216.184092 
L 126.402087 217.5954 
L 125.466514 220.435263 
L 124.998868 221.853929 
L 124.527987 223.282483 
L 124.111854 224.54546 
L 123.595666 226.112453 
L 122.731317 228.734761 
" clip-path="url(#pd5b50e6110)" style="fill: none; stroke: #f87d2a; stroke-width: 2"/>
    <path d="M 127.693627 212.203248 
L 126.892953 214.617439 
L 126.42716 216.03887 
L 125.964606 217.450412 
L 125.498816 218.871842 
L 125.031172 220.290508 
L 124.094785 223.13796 
L 123.166459 225.970926 
L 122.30425 228.593467 
L 122.180713 228.974294 
L 121.700135 230.432511 
" clip-path="url(#pd5b50e6110)" style="fill: none; stroke: #f87d2a; stroke-width: 2"/>
    <path d="M 128.182907 212.190019 
L 127.693627 212.203248 
" clip-path="url(#pd5b50e6110)" style="fill: none; stroke: #f87d2a; stroke-width: 2"/>
    <path d="M 128.279454 211.898421 
L 128.182907 212.190019 
" clip-path="url(#pd5b50e6110)" style="fill: none; stroke: #f87d2a; stroke-width: 2"/>
    <path d="M 127.693627 212.203248 
L 124.761673 212.288166 
L 121.593907 212.378143 
L 120.221051 212.417982 
L 118.417627 212.467234 
L 115.258431 212.558228 
L 112.073379 212.649008 
L 111.477935 212.666065 
L 108.897156 212.738232 
L 105.729483 212.828429 
L 102.70028 212.915827 
L 102.540222 212.918877 
L 99.368045 213.011228 
L 96.455996 213.093541 
L 95.957937 213.108439 
L 93.92731 213.163861 
L 93.052581 213.188961 
L 89.863395 213.279587 
L 86.68916 213.371882 
L 83.513086 213.46146 
L 79.530858 213.581131 
L 78.43555 213.610446 
L 76.458866 213.666766 
L 76.255879 213.667724 
" clip-path="url(#pd5b50e6110)" style="fill: none; stroke: #f87d2a; stroke-width: 2"/>
    <path d="M 127.785356 211.916245 
L 127.693627 212.203248 
" clip-path="url(#pd5b50e6110)" style="fill: none; stroke: #f87d2a; stroke-width: 2"/>
    <path d="M 128.279454 211.898421 
L 127.785356 211.916245 
" clip-path="url(#pd5b50e6110)" style="fill: none; stroke: #f87d2a; stroke-width: 2"/>
    <path d="M 131.056893 203.468903 
L 131.008308 203.618665 
L 130.30574 205.746556 
L 128.727142 210.544144 
L 128.279454 211.898421 
" clip-path="url(#pd5b50e6110)" style="fill: none; stroke: #f87d2a; stroke-width: 2"/>
    <path d="M 127.785356 211.916245 
L 124.857664 212.001628 
L 121.690169 212.089074 
L 119.423064 212.154351 
L 118.513609 212.180695 
L 115.352275 212.271457 
L 112.169353 212.362469 
L 110.686074 212.405695 
L 108.990716 212.45399 
L 105.823039 212.544187 
L 102.636182 212.632337 
L 101.908696 212.65296 
L 99.462143 212.721926 
L 96.55009 212.804238 
" clip-path="url(#pd5b50e6110)" style="fill: none; stroke: #f87d2a; stroke-width: 2"/>
    <path d="M 130.603639 203.31728 
L 130.55428 203.466752 
L 129.874576 205.543368 
L 128.288688 210.368326 
L 127.785356 211.916245 
" clip-path="url(#pd5b50e6110)" style="fill: none; stroke: #f87d2a; stroke-width: 2"/>
    <path d="M 74.220304 213.709974 
L 76.255879 213.667724 
" clip-path="url(#pd5b50e6110)" style="fill: none; stroke: #f87d2a; stroke-width: 2"/>
    <path d="M 74.220304 213.709974 
L 71.45956 213.494154 
L 68.707356 213.279297 
L 65.946626 213.063547 
L 63.207234 212.850152 
L 62.916863 212.821139 
L 60.354522 212.627031 
L 58.033175 212.797081 
L 55.674588 212.614935 
L 53.219745 212.424912 
L 50.760367 212.236984 
L 48.318333 212.048407 
L 45.867772 211.858932 
L 43.42575 211.670411 
L 40.990131 211.482613 
L 38.543854 211.293684 
L 36.123178 211.107563 
L 35.802128 211.082934 
" clip-path="url(#pd5b50e6110)" style="fill: none; stroke: #f87d2a; stroke-width: 2"/>
    <path d="M 96.054163 212.819368 
L 93.146394 212.902188 
L 89.957204 212.992813 
L 86.785373 213.082811 
L 84.317283 213.152148 
L 83.609295 213.172388 
L 80.435369 213.262241 
L 78.371976 213.321911 
L 76.275769 213.38571 
L 74.258907 213.255907 
L 71.498157 213.040087 
L 68.743814 212.824999 
L 65.985212 212.609482 
L 63.243956 212.393326 
L 60.403211 212.179188 
L 58.065553 212.360266 
L 55.707237 212.175591 
L 53.252663 211.983039 
L 50.79383 211.790051 
L 48.352341 211.596416 
L 45.90205 211.404411 
L 43.458164 211.213129 
L 41.025224 211.020503 
L 38.579216 210.829045 
L 36.156951 210.637632 
L 35.846016 210.619222 
L 33.336789 210.433756 
L 30.943574 210.253235 
L 28.864739 210.099194 
L 26.039021 209.887128 
L 21.170331 209.489183 
L 18.721411 209.305308 
L 17.84256 209.230408 
" clip-path="url(#pd5b50e6110)" style="fill: none; stroke: #f87d2a; stroke-width: 2"/>
    <path d="M 96.55009 212.804238 
L 96.054163 212.819368 
" clip-path="url(#pd5b50e6110)" style="fill: none; stroke: #f87d2a; stroke-width: 2"/>
    <path d="M 113.988811 158.530766 
L 113.016624 161.471656 
L 112.256338 163.775062 
L 111.158532 167.096553 
L 110.21955 169.930957 
L 109.785514 171.240647 
L 109.440696 172.2861 
L 109.026352 173.533925 
L 108.102738 176.326472 
L 107.533649 178.043899 
L 106.961328 179.771213 
L 105.963042 182.793728 
L 105.095555 185.408037 
L 104.146366 188.277155 
L 103.207166 191.114074 
L 102.335363 193.748388 
L 102.209463 194.131519 
L 101.771671 195.45615 
L 101.341659 196.768826 
L 100.409983 199.596314 
L 99.938744 201.029951 
L 99.47508 202.433689 
L 98.54046 205.268532 
L 97.612042 208.086126 
L 96.676885 210.926025 
L 96.054163 212.819368 
" clip-path="url(#pd5b50e6110)" style="fill: none; stroke: #f87d2a; stroke-width: 2"/>
    <path d="M 114.355804 158.650089 
L 113.383336 161.59351 
L 112.623046 163.896915 
L 112.240494 165.050915 
L 111.525233 167.218405 
L 110.59423 170.058799 
L 109.414101 173.66063 
L 108.496332 176.458933 
L 107.93364 178.177056 
L 107.365582 179.904835 
L 106.375823 182.928279 
L 105.516314 185.548577 
L 104.575652 188.418623 
L 103.644153 191.264062 
L 102.781153 193.896774 
L 102.655528 194.277375 
L 101.785584 196.914448 
L 100.853902 199.741937 
L 100.38562 201.168215 
L 99.921126 202.579544 
L 98.986223 205.416916 
L 98.057799 208.234509 
L 97.588221 209.652962 
L 97.120779 211.071646 
L 96.55009 212.804238 
" clip-path="url(#pd5b50e6110)" style="fill: none; stroke: #f87d2a; stroke-width: 2"/>
    <path d="M 131.056893 203.468903 
L 130.609231 203.31912 
L 130.603639 203.31728 
" clip-path="url(#pd5b50e6110)" style="fill: none; stroke: #f87d2a; stroke-width: 2"/>
    <path d="M 131.07616 203.409513 
L 131.056893 203.468903 
" clip-path="url(#pd5b50e6110)" style="fill: none; stroke: #f87d2a; stroke-width: 2"/>
    <path d="M 131.07616 203.409513 
L 130.630784 203.260021 
L 130.623354 203.257576 
" clip-path="url(#pd5b50e6110)" style="fill: none; stroke: #f87d2a; stroke-width: 2"/>
    <path d="M 130.603639 203.31728 
L 128.014766 202.465333 
L 125.184742 201.534701 
L 122.346724 200.598121 
L 119.522801 199.6708 
L 116.67836 198.733606 
L 113.840307 197.797152 
L 111.010224 196.866729 
L 108.161756 195.926666 
L 105.327658 194.993332 
L 102.710457 194.12974 
" clip-path="url(#pd5b50e6110)" style="fill: none; stroke: #f87d2a; stroke-width: 2"/>
    <path d="M 130.623354 203.257576 
L 130.603639 203.31728 
" clip-path="url(#pd5b50e6110)" style="fill: none; stroke: #f87d2a; stroke-width: 2"/>
    <path d="M 130.623354 203.257576 
L 128.036319 202.406234 
L 125.20657 201.473072 
L 122.368275 200.539021 
L 119.544627 199.60917 
L 116.700185 198.671976 
L 113.862131 197.735521 
L 111.032047 196.805098 
L 108.185712 195.865268 
L 105.349204 194.934231 
L 102.732002 194.07064 
" clip-path="url(#pd5b50e6110)" style="fill: none; stroke: #f87d2a; stroke-width: 2"/>
    <path d="M 129.45691 169.442819 
L 128.360394 172.769577 
L 127.423777 175.619606 
L 126.235285 179.235895 
" clip-path="url(#pd5b50e6110)" style="fill: none; stroke: #f87d2a; stroke-width: 2"/>
    <path d="M 116.061172 153.774074 
L 115.385541 155.815312 
L 114.506827 158.492432 
L 114.355804 158.650089 
" clip-path="url(#pd5b50e6110)" style="fill: none; stroke: #f87d2a; stroke-width: 2"/>
    <path d="M 115.549494 153.516105 
L 114.854109 155.639682 
L 113.975402 158.316803 
L 113.988811 158.530766 
" clip-path="url(#pd5b50e6110)" style="fill: none; stroke: #f87d2a; stroke-width: 2"/>
   </g>
  </g>
 </g>
 <defs>
  <clipPath id="pd5b50e6110">
   <rect x="7.2" y="7.2" width="233.259441" height="405.405"/>
  </clipPath>
 </defs>
</svg>
