<?xml version="1.0" encoding="utf-8" standalone="no"?>
<!DOCTYPE svg PUBLIC "-//W3C//DTD SVG 1.1//EN"
  "http://www.w3.org/Graphics/SVG/1.1/DTD/svg11.dtd">
<svg xmlns:xlink="http://www.w3.org/1999/xlink" width="450.614473pt" height="419.805pt" viewBox="0 0 450.614473 419.805" xmlns="http://www.w3.org/2000/svg" version="1.1">
 <metadata>
  <rdf:RDF xmlns:dc="http://purl.org/dc/elements/1.1/" xmlns:cc="http://creativecommons.org/ns#" xmlns:rdf="http://www.w3.org/1999/02/22-rdf-syntax-ns#">
   <cc:Work>
    <dc:type rdf:resource="http://purl.org/dc/dcmitype/StillImage"/>
    <dc:date>2023-06-25T14:05:23.666090</dc:date>
    <dc:format>image/svg+xml</dc:format>
    <dc:creator>
     <cc:Agent>
      <dc:title>Matplotlib v3.7.1, https://matplotlib.org/</dc:title>
     </cc:Agent>
    </dc:creator>
   </cc:Work>
  </rdf:RDF>
 </metadata>
 <defs>
  <style type="text/css">*{stroke-linejoin: round; stroke-linecap: butt}</style>
 </defs>
 <g id="figure_1">
  <g id="patch_1">
   <path d="M 0 419.805 
L 450.614473 419.805 
L 450.614473 0 
L 0 0 
z
" style="fill: #ffffff"/>
  </g>
  <g id="axes_1">
   <g id="LineCollection_1">
    <path d="M 95.297387 185.868733 
L 95.078007 185.822114 
L 94.935441 185.692254 
L 93.26763 184.029347 
L 93.069907 183.891801 
L 92.342177 183.460887 
L 90.56159 181.781396 
L 88.499644 179.198428 
L 88.366844 179.031882 
" clip-path="url(#p650d07926f)" style="fill: none; stroke: #796eb2; stroke-width: 3"/>
    <path d="M 88.033479 178.627699 
L 88.19423 178.815998 
L 88.366844 179.031882 
" clip-path="url(#p650d07926f)" style="fill: none; stroke: #796eb2; stroke-width: 3"/>
    <path d="M 64.49683 147.474431 
L 64.438303 147.547915 
L 64.407998 147.664754 
L 64.41316 147.772291 
L 64.463471 148.094103 
L 64.620659 148.659078 
L 64.680215 148.964083 
L 64.639313 149.133494 
L 64.517166 149.26669 
L 64.296147 149.541077 
L 63.798482 149.023477 
L 63.68772 148.913186 
L 63.333383 148.559574 
L 62.722509 147.945255 
L 62.354282 147.577642 
L 61.668114 146.892029 
L 61.650504 146.618803 
L 61.500529 146.613185 
L 61.402632 146.588468 
L 61.109664 146.309761 
L 61.094963 146.294603 
L 60.388578 145.596525 
L 60.305977 145.515949 
" clip-path="url(#p650d07926f)" style="fill: none; stroke: #796eb2; stroke-width: 3"/>
    <path d="M 64.49683 147.474431 
L 64.556324 147.492463 
L 64.627086 147.560796 
L 64.795616 147.835685 
L 64.966609 148.594797 
L 65.087232 149.146884 
L 65.123879 149.462089 
" clip-path="url(#p650d07926f)" style="fill: none; stroke: #796eb2; stroke-width: 3"/>
    <path d="M 64.49683 147.474431 
L 64.305554 147.203495 
L 65.091383 146.030078 
L 65.706395 144.942557 
L 66.692617 142.982776 
L 69.044332 138.475285 
L 69.792444 136.9298 
L 69.890815 136.727223 
L 70.021277 136.596515 
L 70.19232 136.501529 
L 70.30466 136.374326 
L 70.674226 135.612831 
L 70.792762 135.119261 
L 70.808945 135.029329 
L 70.82626 134.976364 
" clip-path="url(#p650d07926f)" style="fill: none; stroke: #796eb2; stroke-width: 3"/>
    <path d="M 150.441139 85.132672 
L 150.355239 85.049759 
L 150.303442 85.091039 
L 150.201412 85.129316 
L 150.106688 85.144483 
L 150.00164 85.250874 
" clip-path="url(#p650d07926f)" style="fill: none; stroke: #796eb2; stroke-width: 3"/>
    <path d="M 149.677832 85.661878 
L 149.801365 85.50539 
L 150.00164 85.250874 
" clip-path="url(#p650d07926f)" style="fill: none; stroke: #796eb2; stroke-width: 3"/>
    <path d="M 149.677832 85.661878 
L 149.17196 86.304002 
L 149.1411 86.654388 
L 149.079365 87.355729 
" clip-path="url(#p650d07926f)" style="fill: none; stroke: #796eb2; stroke-width: 3"/>
    <path d="M 65.123879 149.462089 
L 64.702668 149.935828 
L 64.502709 150.222697 
L 64.458376 150.378949 
L 64.460918 150.538697 
L 64.510072 150.728074 
L 64.605722 150.903321 
L 66.664458 153.467602 
L 68.707456 155.784266 
L 69.6291 156.880607 
L 70.638602 158.081522 
L 71.015223 158.530038 
L 74.440651 162.60908 
L 74.783335 162.847587 
L 75.08251 163.178724 
L 75.146752 163.400883 
L 75.721364 164.105156 
L 75.967876 164.397414 
L 78.210087 167.056188 
L 80.640518 169.976702 
L 83.440186 173.245495 
L 84.048165 173.958009 
L 86.738149 177.109129 
L 86.925259 177.219126 
L 87.138035 177.454809 
L 87.181738 177.628697 
L 87.854011 178.417319 
L 88.033479 178.627699 
" clip-path="url(#p650d07926f)" style="fill: none; stroke: #796eb2; stroke-width: 3"/>
    <path d="M 151.55249 85.655216 
L 151.843963 85.278607 
L 152.660237 84.159776 
L 153.481003 82.67226 
L 154.042951 81.692896 
L 154.993408 80.037113 
L 155.805574 78.622106 
L 156.206452 77.937482 
L 156.605235 77.285194 
L 156.901824 76.872344 
L 157.132628 76.587926 
L 157.397766 76.321443 
L 157.615953 76.119664 
" clip-path="url(#p650d07926f)" style="fill: none; stroke: #796eb2; stroke-width: 3"/>
    <path d="M 151.310901 85.967197 
L 151.55249 85.655216 
" clip-path="url(#p650d07926f)" style="fill: none; stroke: #796eb2; stroke-width: 3"/>
    <path d="M 151.55249 85.655216 
L 151.494588 86.143559 
" clip-path="url(#p650d07926f)" style="fill: none; stroke: #796eb2; stroke-width: 3"/>
    <path d="M 137.792006 95.054021 
L 137.227404 94.837673 
L 136.848164 94.700566 
L 132.629597 94.988543 
L 129.411653 95.476852 
L 126.404547 95.885927 
L 123.193391 96.548244 
L 122.867125 96.55115 
L 122.571601 96.678165 
L 120.709244 97.161764 
L 118.910429 97.781679 
L 117.350797 98.312891 
L 116.866044 98.234964 
L 115.197931 98.907122 
L 114.99577 99.16839 
L 114.782265 99.349807 
L 114.297479 99.563963 
L 113.871639 99.752371 
L 113.573648 99.974214 
L 110.023783 101.568094 
L 104.598318 103.925831 
L 101.447634 105.289622 
L 100.175874 105.760617 
L 99.912713 105.754914 
L 99.632165 104.998654 
" clip-path="url(#p650d07926f)" style="fill: none; stroke: #796eb2; stroke-width: 3"/>
    <path d="M 97.351459 104.346669 
L 97.655731 104.496645 
L 98.047682 104.660833 
L 98.557749 104.668411 
L 99.157974 104.675489 
L 99.563255 104.74626 
L 99.632165 104.998654 
" clip-path="url(#p650d07926f)" style="fill: none; stroke: #796eb2; stroke-width: 3"/>
    <path d="M 94.906684 108.472319 
L 98.66721 107.570523 
L 98.638428 107.468056 
L 98.309505 106.298549 
L 98.147393 106.325021 
L 98.100253 106.31584 
L 98.053146 106.273132 
L 98.024351 106.219535 
L 98.006459 106.149742 
L 97.882286 105.555522 
L 97.856204 105.429827 
L 97.846146 105.381263 
L 99.632165 104.998654 
" clip-path="url(#p650d07926f)" style="fill: none; stroke: #796eb2; stroke-width: 3"/>
    <path d="M 151.402954 86.055384 
L 151.310901 85.967197 
" clip-path="url(#p650d07926f)" style="fill: none; stroke: #796eb2; stroke-width: 3"/>
    <path d="M 151.402954 86.055384 
L 151.494588 86.143559 
" clip-path="url(#p650d07926f)" style="fill: none; stroke: #796eb2; stroke-width: 3"/>
    <path d="M 150.441139 85.132672 
L 150.671876 85.354007 
L 150.909575 85.581772 
L 151.037213 85.704406 
L 151.09407 85.759292 
" clip-path="url(#p650d07926f)" style="fill: none; stroke: #796eb2; stroke-width: 3"/>
    <path d="M 184.740808 57.387699 
L 182.490981 57.05755 
L 181.721273 56.944526 
L 180.048627 56.699127 
" clip-path="url(#p650d07926f)" style="fill: none; stroke: #796eb2; stroke-width: 3"/>
    <path d="M 184.740808 57.387699 
L 184.825475 56.851171 
L 184.879136 56.509325 
L 184.973219 55.932693 
L 185.313148 53.802523 
L 185.343023 53.619177 
L 185.885346 50.222457 
L 186.481706 46.078163 
L 186.511633 45.909024 
L 186.66283 45.751532 
L 186.855738 45.618413 
L 189.652132 43.848117 
L 191.980624 42.340227 
L 192.583664 41.94035 
L 192.644364 41.894746 
L 192.870057 41.725531 
L 192.935033 41.676628 
L 192.988509 41.634817 
L 193.094784 41.544925 
L 193.129954 41.514008 
L 193.338431 41.329574 
L 195.146036 39.732113 
L 196.755093 38.307401 
L 196.888127 38.187511 
L 196.994965 38.09195 
L 199.066411 36.24213 
L 200.106323 35.31704 
L 200.186543 35.245797 
L 200.503164 34.963559 
L 200.87433 34.630443 
L 201.29098 34.256445 
L 201.64284 33.940447 
L 203.537735 32.238357 
L 203.729109 32.066547 
L 203.933311 31.835969 
L 205.715513 29.738872 
L 206.091029 29.301303 
L 208.424068 26.533029 
L 208.799659 26.059659 
L 208.932639 25.892598 
L 209.098318 25.6275 
" clip-path="url(#p650d07926f)" style="fill: none; stroke: #796eb2; stroke-width: 3"/>
    <path d="M 60.305977 145.515949 
L 59.973473 145.306106 
L 59.785283 145.206294 
L 59.628073 145.108427 
L 59.387439 144.993608 
L 59.132088 144.9125 
L 58.649606 144.488484 
L 57.9319 143.790674 
L 56.941024 142.827171 
L 56.680203 142.586237 
L 56.029504 141.94018 
L 55.052804 140.94806 
L 53.734229 139.607756 
L 52.072934 137.919809 
L 50.935326 136.763792 
L 50.678671 136.508187 
L 46.782413 132.623439 
L 44.936064 130.782871 
L 43.842079 129.692184 
L 43.356509 129.195327 
L 39.375685 125.167352 
L 39.31574 125.038492 
L 39.313825 124.807159 
L 39.380734 124.573649 
L 39.336731 124.540675 
" clip-path="url(#p650d07926f)" style="fill: none; stroke: #796eb2; stroke-width: 3"/>
    <path d="M 69.278844 132.874932 
L 69.215551 133.018756 
L 68.550947 134.33684 
L 68.420423 134.566424 
L 67.724795 136.012692 
L 66.673857 138.252078 
L 66.025894 139.526266 
L 65.349752 140.932124 
L 65.167599 141.243894 
L 62.920348 145.039782 
L 62.536582 145.621328 
L 61.708657 145.033166 
L 61.635961 145.006834 
L 61.540927 145.000944 
L 60.760662 145.141399 
L 60.676064 145.153397 
L 60.63542 145.168248 
L 60.600466 145.190066 
L 60.305977 145.515949 
" clip-path="url(#p650d07926f)" style="fill: none; stroke: #796eb2; stroke-width: 3"/>
    <path d="M 143.547285 93.465216 
L 143.331165 93.618737 
L 142.629639 94.043831 
L 142.155691 94.277625 
L 141.542771 94.502708 
L 140.403915 94.83181 
L 139.095954 94.971847 
L 137.792006 95.054021 
" clip-path="url(#p650d07926f)" style="fill: none; stroke: #796eb2; stroke-width: 3"/>
    <path d="M 143.8005 94.000816 
L 143.547285 93.465216 
" clip-path="url(#p650d07926f)" style="fill: none; stroke: #796eb2; stroke-width: 3"/>
    <path d="M 149.079365 87.355729 
L 147.700263 89.064626 
L 146.121647 91.030327 
L 145.410396 91.718278 
L 144.124319 93.055085 
L 143.547285 93.465216 
" clip-path="url(#p650d07926f)" style="fill: none; stroke: #796eb2; stroke-width: 3"/>
    <path d="M 178.430729 57.159772 
L 178.30775 57.279347 
" clip-path="url(#p650d07926f)" style="fill: none; stroke: #796eb2; stroke-width: 3"/>
    <path d="M 167.919748 55.644792 
L 168.031686 55.66075 
L 170.664319 56.036667 
L 173.053447 56.377871 
L 178.30775 57.279347 
" clip-path="url(#p650d07926f)" style="fill: none; stroke: #796eb2; stroke-width: 3"/>
    <path d="M 175.251397 72.199744 
L 175.427592 71.268365 
L 175.658253 69.736604 
L 176.413205 68.406453 
L 177.216947 63.83337 
L 177.698631 60.938575 
L 178.30775 57.279347 
" clip-path="url(#p650d07926f)" style="fill: none; stroke: #796eb2; stroke-width: 3"/>
    <path d="M 76.600355 117.270946 
L 75.749307 119.020041 
L 75.66729 119.238957 
L 75.631256 119.447139 
L 75.600868 119.873111 
L 75.329505 120.358722 
L 75.180596 120.682729 
L 75.122346 120.810206 
L 74.997276 121.088236 
L 74.550819 121.96934 
L 74.464264 122.024478 
L 74.257892 122.156051 
L 74.102893 122.488422 
L 74.025603 122.654613 
L 74.049925 122.928012 
L 72.144297 126.912998 
L 70.457397 130.339393 
L 70.135065 130.99415 
L 69.963267 131.37552 
L 69.78209 131.778808 
L 69.738479 131.875411 
" clip-path="url(#p650d07926f)" style="fill: none; stroke: #796eb2; stroke-width: 3"/>
    <path d="M 69.738479 131.875411 
L 69.657102 132.053428 
L 69.597083 132.184268 
" clip-path="url(#p650d07926f)" style="fill: none; stroke: #796eb2; stroke-width: 3"/>
    <path d="M 180.048627 56.699127 
L 179.044266 56.549364 
L 178.978698 56.539719 
L 178.625718 56.490843 
" clip-path="url(#p650d07926f)" style="fill: none; stroke: #796eb2; stroke-width: 3"/>
    <path d="M 178.625718 56.490843 
L 178.430729 57.159772 
" clip-path="url(#p650d07926f)" style="fill: none; stroke: #796eb2; stroke-width: 3"/>
    <path d="M 169.434498 84.988975 
L 169.198019 85.038564 
L 169.089683 85.061341 
L 168.961477 85.139294 
L 168.822881 85.343701 
L 168.512988 87.182546 
L 168.444667 87.864398 
L 168.558451 88.605501 
" clip-path="url(#p650d07926f)" style="fill: none; stroke: #796eb2; stroke-width: 3"/>
    <path d="M 178.430729 57.159772 
L 178.893172 57.027921 
L 180.048627 56.699127 
" clip-path="url(#p650d07926f)" style="fill: none; stroke: #796eb2; stroke-width: 3"/>
    <path d="M 94.906684 108.472319 
L 94.84444 108.189411 
L 94.568052 106.886588 
L 95.098637 106.717975 
L 95.196 106.650043 
L 95.252271 106.582178 
L 95.282807 106.520463 
L 95.294723 106.449172 
L 95.196561 105.935185 
L 95.15376 105.710745 
L 95.134212 105.60795 
L 92.7908 106.028887 
L 92.982546 106.765226 
L 93.030177 107.206868 
L 92.757109 107.420818 
L 92.038592 107.560673 
L 90.79961 107.802342 
L 90.231936 107.913726 
L 88.053978 108.340073 
L 86.858094 108.649337 
L 86.682972 108.708424 
L 85.646139 109.060465 
L 84.996708 109.348715 
L 82.795912 110.442143 
" clip-path="url(#p650d07926f)" style="fill: none; stroke: #796eb2; stroke-width: 3"/>
    <path d="M 79.059287 118.245932 
L 79.039712 118.144272 
L 79.046551 118.042731 
L 79.095738 117.941157 
L 79.562099 117.21286 
L 80.913831 115.444975 
L 81.797468 114.520127 
L 83.647428 112.972622 
L 84.78646 112.270924 
L 86.357842 111.631053 
L 88.685673 110.972787 
L 93.355364 110.018558 
L 94.027207 110.125817 
L 96.135273 109.710686 
L 96.106139 109.541154 
L 96.023573 109.475362 
L 95.92028 109.448809 
L 95.817684 109.443869 
L 95.139463 109.581936 
L 94.906684 108.472319 
" clip-path="url(#p650d07926f)" style="fill: none; stroke: #796eb2; stroke-width: 3"/>
    <path d="M 151.494588 86.143559 
L 151.462585 86.53824 
L 151.444666 86.761103 
L 151.438407 86.841066 
L 151.755203 87.187937 
L 152.07447 87.536576 
L 152.572771 87.852336 
L 153.948312 89.346604 
L 154.348154 89.741079 
L 154.584469 89.973921 
L 155.251884 90.478731 
L 155.772309 90.766077 
L 155.93806 90.857872 
L 157.264924 91.34846 
L 158.283795 91.573099 
L 159.213079 91.678929 
L 159.988195 91.698945 
L 160.821604 91.653411 
L 161.594301 91.572212 
L 162.278507 91.410875 
L 162.924774 91.208779 
L 163.594954 90.957293 
L 168.558451 88.605501 
" clip-path="url(#p650d07926f)" style="fill: none; stroke: #796eb2; stroke-width: 3"/>
    <path d="M 167.919748 55.644792 
L 166.368763 61.293041 
L 165.553019 64.197953 
L 164.853918 66.64388 
L 163.39639 71.672853 
L 162.892583 72.399152 
L 162.616901 72.717079 
L 162.249314 73.054795 
L 159.483462 75.186516 
L 158.472671 75.965633 
L 158.082327 76.031697 
L 157.615953 76.119664 
" clip-path="url(#p650d07926f)" style="fill: none; stroke: #796eb2; stroke-width: 3"/>
    <path d="M 167.919748 55.644792 
L 167.527529 54.858429 
" clip-path="url(#p650d07926f)" style="fill: none; stroke: #796eb2; stroke-width: 3"/>
    <path d="M 79.059287 118.245932 
L 78.952536 118.464773 
L 78.235313 119.970166 
L 78.096152 119.904032 
L 78.400249 119.256181 
L 78.436201 119.179834 
L 78.363283 119.146111 
L 77.665939 118.826197 
L 77.231242 118.61257 
L 76.482987 118.283371 
L 76.447756 118.267678 
L 76.409979 118.34966 
L 76.089044 119.048215 
L 75.925008 118.971203 
L 76.721631 117.3315 
L 76.600355 117.270946 
" clip-path="url(#p650d07926f)" style="fill: none; stroke: #796eb2; stroke-width: 3"/>
    <path d="M 71.374709 133.706391 
L 71.431824 133.574339 
L 73.268619 129.834757 
L 73.872995 128.574194 
L 74.79589 126.72412 
L 75.534278 125.244289 
L 75.948851 124.379969 
L 77.358879 121.438451 
L 77.60364 120.92771 
L 78.23774 120.279364 
L 78.332074 120.167032 
L 78.391644 120.053227 
L 79.088098 118.556385 
L 79.101334 118.482856 
L 79.096075 118.411118 
L 79.059287 118.245932 
" clip-path="url(#p650d07926f)" style="fill: none; stroke: #796eb2; stroke-width: 3"/>
    <path d="M 151.22581 85.885441 
L 151.310901 85.967197 
" clip-path="url(#p650d07926f)" style="fill: none; stroke: #796eb2; stroke-width: 3"/>
    <path d="M 151.09407 85.759292 
L 151.22581 85.885441 
" clip-path="url(#p650d07926f)" style="fill: none; stroke: #796eb2; stroke-width: 3"/>
    <path d="M 171.699153 85.953761 
L 171.351108 87.451805 
L 170.360528 87.804716 
L 169.665419 88.145356 
L 168.558451 88.605501 
" clip-path="url(#p650d07926f)" style="fill: none; stroke: #796eb2; stroke-width: 3"/>
    <path d="M 82.666609 111.028064 
L 82.637165 111.144359 
L 82.079322 111.521932 
L 81.261423 112.176863 
L 80.230008 113.125137 
L 79.467657 113.900845 
L 78.888858 114.535291 
L 78.380098 115.040291 
L 77.987778 115.453425 
L 77.63778 115.931875 
L 77.196862 116.375565 
" clip-path="url(#p650d07926f)" style="fill: none; stroke: #796eb2; stroke-width: 3"/>
    <path d="M 77.196862 116.375565 
L 77.13782 116.501317 
L 77.024669 116.740448 
" clip-path="url(#p650d07926f)" style="fill: none; stroke: #796eb2; stroke-width: 3"/>
    <path d="M 77.024669 116.740448 
L 76.95764 116.88304 
L 76.600355 117.270946 
" clip-path="url(#p650d07926f)" style="fill: none; stroke: #796eb2; stroke-width: 3"/>
    <path d="M 38.791302 124.136577 
L 39.067713 124.341564 
L 39.336731 124.540675 
" clip-path="url(#p650d07926f)" style="fill: none; stroke: #796eb2; stroke-width: 3"/>
    <path d="M 27.027931 112.729292 
L 27.169041 112.992685 
L 28.531033 114.220579 
L 29.698273 115.376312 
L 30.261799 115.953083 
L 30.583512 116.253027 
L 31.955502 117.612437 
L 34.422496 120.133624 
L 37.210651 122.865497 
L 38.466781 124.103651 
L 38.544169 124.126701 
L 38.618547 124.136603 
L 38.69099 124.124292 
L 38.745233 124.102412 
L 38.791302 124.136577 
" clip-path="url(#p650d07926f)" style="fill: none; stroke: #796eb2; stroke-width: 3"/>
    <path d="M 69.597083 132.184268 
L 69.445172 132.510467 
" clip-path="url(#p650d07926f)" style="fill: none; stroke: #796eb2; stroke-width: 3"/>
    <path d="M 82.795912 110.442143 
L 82.780666 110.544602 
L 82.767465 110.632907 
L 82.666609 111.028064 
" clip-path="url(#p650d07926f)" style="fill: none; stroke: #796eb2; stroke-width: 3"/>
    <path d="M 69.445172 132.510467 
L 69.381652 132.646898 
L 69.278844 132.874932 
" clip-path="url(#p650d07926f)" style="fill: none; stroke: #796eb2; stroke-width: 3"/>
    <path d="M 71.24419 134.000189 
L 71.317175 133.838433 
L 71.374709 133.706391 
" clip-path="url(#p650d07926f)" style="fill: none; stroke: #796eb2; stroke-width: 3"/>
    <path d="M 70.971836 134.635793 
L 71.24419 134.000189 
" clip-path="url(#p650d07926f)" style="fill: none; stroke: #796eb2; stroke-width: 3"/>
    <path d="M 70.82626 134.976364 
L 70.902159 134.79934 
L 70.971836 134.635793 
" clip-path="url(#p650d07926f)" style="fill: none; stroke: #796eb2; stroke-width: 3"/>
   </g>
   <g id="LineCollection_2">
    <path d="M 416.157752 383.123171 
L 416.922275 383.129189 
L 417.174895 382.837805 
L 417.166224 382.491857 
L 416.984361 382.217978 
L 417.082216 377.074792 
L 417.495679 360.411933 
L 417.791943 358.029643 
L 418.208865 356.561528 
L 420.273557 352.010865 
L 420.714516 351.871772 
L 421.022421 351.305594 
L 421.092817 350.747082 
L 422.08973 348.564706 
L 423.018754 345.24064 
L 423.415271 342.884014 
L 423.586543 340.813456 
L 423.578725 338.035618 
L 423.347715 335.12395 
L 422.61349 331.409146 
L 422.298145 330.817894 
L 421.737415 330.560403 
L 417.378996 322.242503 
L 413.244453 315.215501 
L 412.394388 315.804907 
" clip-path="url(#p650d07926f)" style="fill: none; stroke: #f87d2a"/>
    <path d="M 412.394388 315.804907 
L 414.783143 320.388097 
L 415.625397 321.38127 
L 418.389043 326.250224 
L 421.028674 331.634096 
L 421.977173 333.958367 
L 421.980252 333.965911 
L 422.567495 339.015531 
L 422.534327 341.062285 
L 422.363404 343.253444 
L 420.462959 343.932588 
L 420.184871 344.676488 
L 420.17749 345.526009 
L 420.474495 346.436024 
L 421.197068 347.368715 
L 421.158202 348.098263 
L 419.653357 351.168266 
L 417.168495 356.535933 
L 416.346701 360.484896 
L 416.247004 364.677992 
L 415.944591 365.260977 
L 415.917579 366.581863 
L 416.197358 367.637283 
L 416.151264 370.333674 
L 416.331199 371.839008 
L 416.244906 378.832599 
L 416.157752 383.123171 
" clip-path="url(#p650d07926f)" style="fill: none; stroke: #f87d2a"/>
    <path d="M 423.07973 333.794533 
L 421.977173 333.958367 
L 403.143242 336.756988 
L 403.356976 338.33999 
L 395.794643 339.400349 
L 395.376277 339.933584 
L 395.508198 344.099042 
L 395.279285 344.229058 
L 395.08908 352.652887 
L 394.677805 381.673106 
L 394.594542 389.594508 
L 394.40799 394.1775 
L 399.469375 393.776467 
L 407.530332 392.346343 
L 416.468463 392.265634 
L 416.767291 391.997035 
L 416.328511 386.758083 
L 416.145479 386.531554 
L 416.017198 386.091171 
L 416.140821 385.805115 
L 416.157752 383.123171 
" clip-path="url(#p650d07926f)" style="fill: none; stroke: #f87d2a"/>
    <path d="M 401.709455 280.909284 
L 401.014844 281.549699 
L 401.755664 282.218745 
L 395.527083 288.688797 
L 395.962248 289.370439 
L 395.647175 291.011986 
L 396.627379 291.381243 
L 396.460478 292.597132 
L 396.480752 292.85225 
L 396.612118 294.518932 
L 397.015483 296.166233 
L 397.621734 297.587931 
L 398.044563 299.000302 
L 397.945446 299.639933 
L 402.544503 301.437252 
L 405.966122 304.310552 
L 411.28174 313.670104 
L 412.394388 315.804907 
" clip-path="url(#p650d07926f)" style="fill: none; stroke: #f87d2a"/>
   </g>
  </g>
 </g>
 <defs>
  <clipPath id="p650d07926f">
   <rect x="7.2" y="7.2" width="436.214473" height="405.405"/>
  </clipPath>
 </defs>
</svg>
